<?xml version="1.0" encoding="UTF-8" standalone="no"?>
<!-- Created with Inkscape (http://www.inkscape.org/) -->

<svg
   xmlns:dc="http://purl.org/dc/elements/1.1/"
   xmlns:cc="http://creativecommons.org/ns#"
   xmlns:rdf="http://www.w3.org/1999/02/22-rdf-syntax-ns#"
   xmlns:svg="http://www.w3.org/2000/svg"
   xmlns="http://www.w3.org/2000/svg"
   xmlns:sodipodi="http://sodipodi.sourceforge.net/DTD/sodipodi-0.dtd"
   xmlns:inkscape="http://www.inkscape.org/namespaces/inkscape"
   width="250"
   height="250"
   id="svg2633"
   sodipodi:version="0.32"
   inkscape:version="0.47 r22583"
   version="1.0"
   sodipodi:docname="sync_button.svg"
   inkscape:output_extension="org.inkscape.output.svg.inkscape"
   inkscape:export-filename="/home/neil/workspace/SyncMyPix/images/sync_button.png"
   inkscape:export-xdpi="28.879999"
   inkscape:export-ydpi="28.879999">
  <defs
     id="defs2635">
    <inkscape:perspective
       sodipodi:type="inkscape:persp3d"
       inkscape:vp_x="0 : 526.18109 : 1"
       inkscape:vp_y="0 : 1000 : 0"
       inkscape:vp_z="744.09448 : 526.18109 : 1"
       inkscape:persp3d-origin="372.04724 : 350.78739 : 1"
       id="perspective2641" />
    <inkscape:perspective
       id="perspective2835"
       inkscape:persp3d-origin="0.5 : 0.33333333 : 1"
       inkscape:vp_z="1 : 0.5 : 1"
       inkscape:vp_y="0 : 1000 : 0"
       inkscape:vp_x="0 : 0.5 : 1"
       sodipodi:type="inkscape:persp3d" />
    <inkscape:perspective
       id="perspective2869"
       inkscape:persp3d-origin="0.5 : 0.33333333 : 1"
       inkscape:vp_z="1 : 0.5 : 1"
       inkscape:vp_y="0 : 1000 : 0"
       inkscape:vp_x="0 : 0.5 : 1"
       sodipodi:type="inkscape:persp3d" />
    <inkscape:perspective
       id="perspective2891"
       inkscape:persp3d-origin="0.5 : 0.33333333 : 1"
       inkscape:vp_z="1 : 0.5 : 1"
       inkscape:vp_y="0 : 1000 : 0"
       inkscape:vp_x="0 : 0.5 : 1"
       sodipodi:type="inkscape:persp3d" />
    <inkscape:perspective
       id="perspective3718"
       inkscape:persp3d-origin="0.5 : 0.33333333 : 1"
       inkscape:vp_z="1 : 0.5 : 1"
       inkscape:vp_y="0 : 1000 : 0"
       inkscape:vp_x="0 : 0.5 : 1"
       sodipodi:type="inkscape:persp3d" />
    <inkscape:perspective
       id="perspective3795"
       inkscape:persp3d-origin="0.5 : 0.33333333 : 1"
       inkscape:vp_z="1 : 0.5 : 1"
       inkscape:vp_y="0 : 1000 : 0"
       inkscape:vp_x="0 : 0.5 : 1"
       sodipodi:type="inkscape:persp3d" />
    <filter
       inkscape:collect="always"
       id="filter3817">
      <feGaussianBlur
         inkscape:collect="always"
         stdDeviation="2.2360103"
         id="feGaussianBlur3819" />
    </filter>
    <filter
       inkscape:collect="always"
       id="filter3863">
      <feGaussianBlur
         inkscape:collect="always"
         stdDeviation="2.6776786"
         id="feGaussianBlur3865" />
    </filter>
    <filter
       inkscape:collect="always"
       id="filter3923"
       x="-0.21306358"
       width="1.4261272"
       y="-0.24518847"
       height="1.4903769">
      <feGaussianBlur
         inkscape:collect="always"
         stdDeviation="2.8796875"
         id="feGaussianBlur3925" />
    </filter>
  </defs>
  <sodipodi:namedview
     id="base"
     pagecolor="#ffffff"
     bordercolor="#666666"
     borderopacity="1.0"
     gridtolerance="10000"
     guidetolerance="10"
     objecttolerance="10"
     inkscape:pageopacity="0.0"
     inkscape:pageshadow="2"
     inkscape:zoom="0.90260102"
     inkscape:cx="115.55483"
     inkscape:cy="123.04039"
     inkscape:document-units="px"
     inkscape:current-layer="layer1"
     showgrid="false"
     inkscape:window-width="1047"
     inkscape:window-height="677"
     inkscape:window-x="231"
     inkscape:window-y="24"
     inkscape:window-maximized="0"
     inkscape:snap-bbox="false"
     showguides="true"
     inkscape:guide-bbox="true" />
  <metadata
     id="metadata2638">
    <rdf:RDF>
      <cc:Work
         rdf:about="">
        <dc:format>image/svg+xml</dc:format>
        <dc:type
           rdf:resource="http://purl.org/dc/dcmitype/StillImage" />
        <dc:title></dc:title>
      </cc:Work>
    </rdf:RDF>
  </metadata>
  <g
     inkscape:label="Layer 1"
     inkscape:groupmode="layer"
     id="layer1">
    <rect
       style="fill:#2ca02c;fill-rule:evenodd;stroke:none"
       id="rect2647"
       width="148.75526"
       height="140.18385"
       x="55.908051"
       y="57.413116"
       rx="13.650644"
       ry="13.650644"
       inkscape:export-filename="/home/neil/workspace/SyncMyPix/images/sync_button.png"
       inkscape:export-xdpi="28.879999"
       inkscape:export-ydpi="28.879999" />
    <path
       style="fill:#333333;fill-opacity:1;fill-rule:evenodd;stroke:none;filter:url(#filter3817)"
       d="m 70.487845,142.10889 22.3125,0 c -4.486377,-13.71788 -1.396379,-29.29113 9.406245,-40.09375 15.38897,-15.388965 40.51122,-15.238782 56.09375,0.34375 0.37639,0.37639 0.70414,0.80029 1.0625,1.1875 l 15.75,-15.749996 c -0.11696,-0.118787 -0.22566,-0.256906 -0.34375,-0.375 C 150.42137,63.073672 111.18936,62.844878 87.144095,86.890144 72.193903,101.84033 66.709435,122.63993 70.487845,142.10889 z"
       id="path2825-4"
       transform="matrix(0.8,0,0,0.8,25.814625,25.639393)" />
    <path
       style="fill:#ffffff;fill-opacity:1;fill-rule:evenodd;stroke:none"
       d="m 80.964625,138.28939 17.85,0 c -3.589102,-10.9743 -1.117103,-23.4329 7.524995,-32.075 12.31118,-12.311172 32.40897,-12.191026 44.875,0.275 0.30112,0.30111 0.56332,0.64023 0.85,0.95 l 12.6,-12.599997 c -0.0936,-0.09503 -0.18052,-0.205525 -0.275,-0.3 -19.47817,-19.478177 -50.86378,-19.661212 -70.099995,-0.425 -11.960154,11.960147 -16.347728,28.599827 -13.325,44.174997 z"
       id="path2825" />
    <path
       style="fill:#333333;fill-opacity:1;fill-rule:evenodd;stroke:none;filter:url(#filter3863)"
       d="m 173.09602,171.68344 c 22.617,-22.61699 23.7634,-58.68519 3.55763,-83.151337 l 6.828,-6.828 -28.21798,-0.50824 -0.55243,29.543807 c 0.43822,-0.60532 0.93343,-1.19859 1.48051,-1.74567 l 4.77297,-4.77297 c 12.21414,15.63292 11.29619,38.11291 -2.91682,52.32591 -15.38897,15.38896 -40.49986,15.22898 -56.0824,-0.35355 -0.37639,-0.37639 -0.7244,-0.78394 -1.08276,-1.17115 l -15.755224,15.75521 c 0.11696,0.11879 0.23546,0.23546 0.35355,0.35356 24.347724,24.34773 63.569684,24.5977 87.614954,0.55243 z"
       id="path2825-2-0"
       transform="matrix(0.8,0,0,0.8,25.814625,25.639393)" />
    <path
       style="fill:#ffffff;fill-opacity:1;fill-rule:evenodd;stroke:none"
       d="m 165.27185,162.98615 c 18.0936,-18.09359 19.01072,-46.94815 2.8461,-66.521074 l 5.4624,-5.4624 -22.57438,-0.406592 -0.44195,23.635056 c 0.35058,-0.48426 0.74675,-0.95888 1.18441,-1.39654 l 3.81838,-3.81838 c 9.77131,12.50634 9.03695,30.49033 -2.33346,41.86073 -12.31117,12.31117 -32.39989,12.18319 -44.86592,-0.28284 -0.30111,-0.30111 -0.57952,-0.62715 -0.86621,-0.93692 l -12.604171,12.60417 c 0.09357,0.095 0.188368,0.18837 0.28284,0.28285 19.478171,19.47817 50.855741,19.67815 70.091961,0.44194 z"
       id="path2825-2" />
    <path
       style="fill:#4d4d4d;fill-opacity:1;fill-rule:evenodd;stroke:none;filter:url(#filter3923)"
       d="m 104.1875,148.4375 c -0.74355,0.50252 -1.52846,0.95679 -2.375,1.3125 l -3.84375,3.84375 C 97.27409,152.70466 96.6078,151.80489 96,150.875 l -24.25,0 c 2.36957,6.54458 5.88768,12.78358 10.53125,18.40625 l -6.84375,6.84375 28.21875,0.5 0.53125,-28.1875 z"
       id="path3708-1"
       transform="matrix(0.8,0,0,0.8,27.814625,27.639393)" />
    <path
       style="fill:#ffffff;fill-opacity:1;fill-rule:evenodd;stroke:none"
       d="m 80.964625,138.28939 c 1.550125,7.98731 5.020452,15.69009 10.5,22.325 l -5.475,5.475 22.574995,0.4 0.45,-23.625 c -0.35057,0.48426 -0.76233,0.96234 -1.2,1.4 l -3.8,3.8 c -2.3446,-3.00087 -4.06691,-6.31042 -5.19999,-9.775 l -17.850005,0 z"
       id="path3708" />
    <path
       style="fill:#ffffff;fill-opacity:1;fill-rule:evenodd;stroke:none"
       id="path3837"
       d="m 89.127774,136.43954 c 0.201001,0.58626 0.549796,1.10482 0.850619,1.6422 0.46307,0.77987 0.798048,1.62375 1.22278,2.42336 0.261763,0.489 0.540694,0.97025 0.883369,1.4074 0.16007,0.19525 0.365063,0.34386 0.54038,0.5248 0.01353,0.0282 0.178267,0.14882 0.194728,0.13091 0.01305,-0.0142 -0.0044,-0.0387 -0.0018,-0.0578 0.0033,-0.0235 0.0129,-0.0458 0.01936,-0.0686 0.946843,0.3313 -1.019431,0.81935 -1.81786,1.24913 -0.0114,0.006 -0.02987,-0.0462 -0.08691,-0.19057 -0.354598,-0.60516 -0.737196,-1.19117 -1.080269,-1.80363 -0.610707,-1.15052 -1.285912,-2.26407 -1.927832,-3.39676 -0.324341,-0.55699 -0.663682,-1.10236 -1.065841,-1.60587 -0.280593,-0.30982 -0.540504,-0.71643 -0.952666,-0.85927 -0.661858,0.18252 -2.853321,1.57935 1.798545,-1.01839 0.01609,-0.009 -0.03594,0.01 -0.05177,0.0194 -0.05557,0.0331 -0.04854,0.0556 -0.07212,0.11994 -0.0743,0.6735 0.155136,1.35015 0.349029,1.986 0.378596,1.04692 0.842843,2.05825 1.242387,3.09699 0.219706,0.59437 0.49832,1.16334 0.745567,1.74588 0.09328,0.21324 0.148997,0.45124 0.242055,0.65926 -0.4225,-0.76987 -0.0054,-0.0919 -2.024862,1.03427 -0.01206,0.006 0.0046,-0.028 0.0011,-0.0414 -0.0058,-0.0227 -0.01742,-0.0435 -0.02786,-0.0645 -0.06047,-0.12142 -0.07382,-0.13497 -0.150761,-0.25649 -0.267972,-0.41332 -0.6035,-0.78175 -0.923993,-1.15552 -0.305909,-0.29448 -0.610073,-0.59062 -0.873669,-0.92435 -0.1563,-0.24845 -0.364699,-0.36846 -0.573432,-0.54717 -0.131125,-0.1225 -0.248066,-0.25912 -0.372584,-0.38824 -0.07511,-0.12459 -0.150885,-0.25065 -0.214998,-0.3813 -0.06519,-0.13351 -0.159815,-0.25175 -0.234029,-0.38158 -0.08893,-0.18657 -0.166497,-0.37457 -0.281585,-0.54753 -0.07521,-0.0923 -0.155833,-0.21129 -0.265171,-0.26557 -0.104224,-0.10147 -0.168887,-0.22717 -0.272637,-0.32928 -0.06786,-0.11479 -0.179767,-0.18285 -0.258543,-0.29037 -0.110758,-0.18869 -0.137113,-0.40781 -0.208471,-0.61162 -0.0087,-0.009 -0.128709,-0.35917 -0.100454,-0.23391 0.238382,0.80313 0.0029,0.11411 1.978137,-1.01125 0.02707,-0.0154 -0.0647,0.0225 -0.07884,0.0502 -0.02521,0.0494 -0.03054,0.14029 -0.03671,0.188 -0.02433,0.62157 0.09721,1.24497 0.223267,1.85132 0.118974,0.67396 0.3684,1.30399 0.643851,1.92579 0.209877,0.46038 0.399009,0.93046 0.646817,1.37227 0.158493,0.27719 0.270748,0.57703 0.40804,0.86451 0.54159,1.0022 0.22734,0.37454 -1.863824,1.44982 -0.05474,-0.15129 -0.123706,-0.28803 -0.208843,-0.42428 -0.212618,-0.27792 -0.346508,-0.60274 -0.521867,-0.90406 -0.177442,-0.30146 -0.408792,-0.56379 -0.609142,-0.84924 -0.158029,-0.18201 -0.324617,-0.35451 -0.477987,-0.5408 -0.07762,-0.0774 -0.107588,-0.18056 -0.160477,-0.27138 -0.06957,-0.1493 -0.158273,-0.28867 -0.235701,-0.4345 -0.132573,-0.16391 -0.208206,-0.36276 -0.335804,-0.52895 -0.09241,-0.10019 -0.144128,-0.22745 -0.172039,-0.359 -0.01845,-0.0905 -0.01979,-0.18323 -0.01795,-0.27524 -0.01786,-0.1484 -0.123417,-0.27549 -0.190136,-0.40734 -0.06023,-0.10355 -0.09043,-0.21733 -0.111349,-0.33415 -0.01869,-0.0529 -0.05919,-0.0984 -0.09786,-0.13948 -0.04896,-0.0638 -0.03531,-0.15035 -0.07625,-0.21303 -0.05502,-0.0526 -0.0976,-0.17757 -0.113005,-0.2098 -0.05398,-0.0181 -0.09332,0.006 -0.149201,0.008 0.121534,0.81475 -0.01252,0.0669 1.943723,-1.08583 0.01224,-0.007 -0.0194,0.0211 -0.02619,0.0336 -0.02862,0.0526 -0.03186,0.11282 -0.03824,0.17094 -0.0074,0.0414 -0.0097,0.20632 -0.007,0.17617 0.06836,0.0254 0.114535,0.16929 0.135035,0.23847 0.02006,0.0959 0.02098,0.19463 0.02016,0.29226 0.01481,0.18362 -0.03645,0.12025 0.0088,0.0879 0.05102,0.0267 0.0541,0.11333 0.09353,0.14919 0.0039,0.003 -2.26e-4,-0.0131 0.0046,-0.0153 0.0034,-0.002 0.0466,0.008 0.04782,0.008 0.375652,0.251 0.797911,0.43778 1.197696,0.64982 0.946183,0.50765 1.879527,1.03819 2.822027,1.55267 0.992032,0.57523 1.925989,1.2317 2.822511,1.94456 0.72557,0.55391 1.415521,1.15572 2.181541,1.65422 0.126343,0.0449 0.246749,0.20817 0.395044,0.19636 0.04232,-0.003 0.208909,-0.10939 0.104977,-0.0519 -0.65204,0.36063 -1.302984,0.72324 -1.954475,1.08486 0.178298,-0.0442 0.119795,-0.2982 0.103182,-0.43019 -0.0761,-0.63607 -0.190397,-1.26617 -0.301701,-1.89674 -0.157847,-0.90668 -0.206689,-1.82651 -0.243924,-2.7445 -0.04383,-0.50665 -0.04016,-1.03011 -0.225172,-1.51071 -0.04628,-0.10281 -0.115744,-0.25878 -0.21501,-0.32165 -0.101113,-0.13797 -0.190303,-0.28551 -0.276373,-0.43408 -0.06598,-0.14523 -0.01446,0.0293 -0.0056,0.0246 0.670248,-0.35794 1.30548,-0.7792 1.97697,-1.13481 0.02429,-0.0129 0.0033,0.0554 0.01178,0.0816 0.0092,0.0286 0.0271,0.0536 0.04066,0.0804 0.390286,0.48908 0.905621,0.87001 1.397434,1.25121 0.572326,0.47067 1.214537,0.84021 1.832444,1.24467 0.334694,0.20789 0.610292,0.47156 0.862996,0.77009 0.192369,0.26407 0.360427,0.54601 0.519227,0.83161 0.0733,0.16844 0.05731,0.31926 -0.04469,0.46497 -0.537222,0.6952 -1.566379,0.89834 -2.30036,1.25831 -0.01632,-0.0362 -0.03784,-0.0704 -0.04896,-0.10845 -0.04446,-0.15231 -0.0237,-0.33557 -0.03217,-0.49133 -0.01086,-0.19975 -0.02445,-0.39932 -0.03577,-0.59904 -0.04118,-0.69576 -0.05889,-1.39252 -0.0694,-2.08932 -0.0016,-0.46372 -0.0293,-0.93335 -0.128611,-1.38764 -0.0066,-0.0107 -0.01214,-0.0422 -0.01959,-0.0322 -0.01078,0.0146 6.88e-4,0.0364 0.0031,0.0544 0.0037,0.0266 -0.0085,0.0914 0.01516,0.079 0.647823,-0.37116 1.295644,-0.74232 1.943466,-1.11349 -0.05258,0.0252 -0.03162,0.007 -0.06392,0.0531 -0.07241,0.15164 -0.0096,0.28781 0.05189,0.42997 0.15518,0.29584 0.336178,0.57772 0.537466,0.84426 0.200728,0.25277 0.42266,0.48779 0.650828,0.71575 0.09705,0.14115 0.206577,0.2687 0.307634,0.40567 0.05622,0.10552 0.0995,0.21824 0.121234,0.33587 0.0086,0.0746 -0.0068,0.13614 0.04286,0.19461 -0.0017,-0.0214 -0.0085,-0.0431 -0.005,-0.0644 0.0071,-0.0438 0.1421,-0.12552 0.07787,-0.0888 -1.923824,1.09953 -2.411357,1.65671 -1.873916,1.05434 0.06761,-0.0576 0.133232,-0.096 0.156642,-0.18833 0.01942,-0.11562 0.01648,-0.23388 0.01346,-0.35073 -0.0014,-0.0701 -0.0014,-0.14013 -0.0038,-0.21019 0.0012,-0.0866 0.0011,-0.17323 -0.0011,-0.25981 0.293511,-0.78263 1.444016,-0.83207 2.183682,-1.18036 0.06657,0.0574 0.01028,0.19644 0.0725,0.22767 -6.78e-4,-0.004 0.07966,0.14866 0.09514,0.11866 -0.0054,-0.069 -0.01454,-0.0394 0.02054,-0.0908 0.720441,-0.39892 1.523257,-0.96609 -1.779063,1.1538 -0.02876,-0.0597 -0.06163,-0.0274 -0.128181,-0.0271 -0.0689,-0.0881 -0.124068,-0.16252 -0.2136,-0.22893 -0.09322,-0.063 -0.156036,-0.1489 -0.248321,-0.21547 -0.07461,-0.0958 -0.124652,-0.20026 -0.14576,-0.31936 0.01138,-0.0248 -0.0477,-0.0771 -0.09583,-0.16199 -0.351789,-0.88131 1.610212,-1.86199 2.189005,-1.10641 0.105405,0.0506 0.16267,0.1316 0.216427,0.23289 0.04942,0.0853 0.05126,0.18076 0.05361,0.2764 0.0095,0.16888 -0.04542,0.32696 -0.106187,0.48139 -0.04953,0.10068 -0.149959,0.1634 -0.129925,0.27817 0.04914,0.19092 0.06734,0.37354 -0.01418,0.55715 -0.677326,0.89924 -1.945613,1.2262 -2.985613,1.60511 -0.518794,0.20917 -1.052565,0.37785 -1.59123,0.52721 0,0 1.803497,-1.3864 1.803497,-1.3864 l 0,0 c 0.530268,-0.14718 1.051685,-0.32356 1.562311,-0.52921 0.201441,-0.0763 0.404003,-0.14968 0.60459,-0.22821 0.06033,-0.0236 0.234984,-0.10794 0.179493,-0.0745 -3.756321,2.26283 -2.359823,1.25255 -1.687473,1.00818 0.14855,-0.13636 0.147984,-0.18359 0.09384,-0.3825 -0.04453,-0.1603 -0.07885,-0.30962 0.0535,-0.44031 0.08787,-0.0899 0.150393,-0.24134 0.157883,-0.36389 2.39e-4,-0.0614 0.01064,-0.12561 -0.0066,-0.18323 -0.03783,-0.0854 -0.131018,-0.11611 -0.187754,-0.18961 -0.04363,-0.0467 -0.09273,-0.0412 -0.08971,-0.043 3.080527,-1.82458 2.499846,-0.61978 1.892488,-1.19252 0.04266,0.0817 0.1339,0.14508 0.137839,0.24041 0.0019,0.0602 0.0056,0.11905 0.05424,0.16309 0.08612,0.0742 0.16191,0.15892 0.253333,0.22714 0.01712,0.0168 0.196989,0.2039 0.15294,0.12612 0.108291,0.0414 0.194414,0.10845 0.242645,0.21707 -0.597473,0.42046 -1.256635,1.23646 -2.080241,1.37919 -0.109241,-0.0261 -0.1966,-0.11484 -0.247262,-0.21441 -0.05985,-0.0718 -0.13673,-0.16595 -0.09042,-0.26305 0.681005,-0.35427 1.364911,-0.70302 2.043016,-1.06282 0.01542,-0.008 -0.04374,-0.015 -0.05239,1.4e-4 -0.03321,0.0582 -0.0057,0.0774 -0.07843,0.10122 -0.0717,-0.005 -0.03149,0.10996 -0.03776,0.16902 -0.0017,0.0706 -8.8e-4,0.1413 -6.53e-4,0.21196 -0.0013,0.12675 -3.24e-4,0.25349 7.03e-4,0.38023 -0.0054,0.11023 -0.0017,0.25927 -0.09586,0.33166 -0.661255,0.53737 -0.118473,0.10029 -2.079355,1.26097 -0.08425,0.0498 -0.200683,-0.0521 -0.246476,-0.10176 -0.06503,-0.0938 -0.120708,-0.18576 -0.103931,-0.30332 0.004,-0.0799 -0.02595,-0.15957 -0.05797,-0.2314 -0.09327,-0.12901 -0.189652,-0.25404 -0.280105,-0.38512 -0.226137,-0.24153 -0.449713,-0.48552 -0.653985,-0.74618 -0.212653,-0.28002 -0.403178,-0.57581 -0.57468,-0.88266 -0.08822,-0.18969 -0.175281,-0.35947 -0.143334,-0.57439 0.127237,-0.91236 1.800174,-2.03086 2.246908,-1.10417 0.06166,0.47716 0.109921,0.95862 0.105696,1.44003 0.0063,0.69261 0.01596,1.3857 0.06515,2.07686 0.02834,0.33975 0.08691,0.68315 0.07894,1.02275 -0.668976,0.36667 -1.33472,0.7393 -2.006929,1.10001 -0.03207,0.0172 0.04386,-0.0581 0.06622,-0.0868 0.0309,-0.0397 0.05178,-0.0893 0.09181,-0.1197 0.01707,-0.013 0.04085,-0.0131 0.06127,-0.0196 4.78e-4,-6.2e-4 0.07843,-0.10229 0.07844,-0.1023 0.01506,-0.009 0.03808,0.006 0.05265,-0.004 0.02991,-0.0203 0.03479,-0.10215 0.03547,-0.13266 -0.134568,-0.27804 -0.292803,-0.5466 -0.475741,-0.7952 -0.243588,-0.2759 -0.516609,-0.51761 -0.822638,-0.72372 -0.606265,-0.41865 -1.2253,-0.81969 -1.801487,-1.28029 -0.527509,-0.39598 -1.085083,-0.782 -1.506091,-1.29546 -0.05666,-0.098 -0.13448,-0.21719 -0.105848,-0.23759 0.716012,-0.51009 1.649594,-1.97197 2.076436,-1.11043 0.06954,0.13154 0.148033,0.26122 0.243895,0.37445 0.107345,0.12267 0.209768,0.26379 0.258093,0.42021 0.165729,0.51777 0.163164,1.06237 0.203488,1.6002 0.02374,0.90879 0.06669,1.81962 0.226727,2.7164 0.117538,0.62493 0.252781,1.24671 0.355594,1.87422 0.04057,0.21494 0.08751,0.43677 0.01931,0.65182 -1.715663,0.96562 -1.585805,1.5879 -2.605576,0.84034 -0.732023,-0.54164 -1.41367,-1.14693 -2.138282,-1.69848 -0.890182,-0.70495 -1.824567,-1.3439 -2.812152,-1.90645 -0.942537,-0.5162 -1.868799,-1.06314 -2.833873,-1.53693 -0.418615,-0.20387 -0.847258,-0.38852 -1.261456,-0.59986 -0.05427,-0.0355 -0.14014,-0.12922 -0.153124,-0.1514 -0.09929,-0.0848 -0.148265,-0.1757 -0.129717,-0.3062 -9.6e-4,-0.084 0.0018,-0.16807 -0.0024,-0.25202 0.0082,-0.0525 -0.03419,-0.0905 -0.06889,-0.12177 -0.08684,-0.1132 -0.101842,-0.21169 -0.08485,-0.35176 0.0591,-0.897 0.592103,-2.23037 2.073686,-1.49662 0.101519,0.019 0.183503,0.0682 0.250314,0.14774 0.0525,0.0772 0.06405,0.16114 0.125029,0.23327 0.03503,0.0542 0.101932,0.14972 0.06699,0.18706 0.06087,0.0811 0.117991,0.16546 0.161251,0.25753 0.0036,0.0951 0.01843,0.18496 0.06467,0.26986 0.07939,0.16825 0.197282,0.31589 0.246821,0.49772 7.75e-4,0.0806 -0.0042,0.16135 2.98e-4,0.24195 0.0089,0.10256 0.04274,0.18919 0.112998,0.2677 0.124624,0.18055 0.210206,0.38348 0.345567,0.5577 0.0786,0.14072 0.173694,0.2722 0.240453,0.41854 0.05454,0.0845 0.08053,0.17073 0.141204,0.25033 0.14748,0.19526 0.322761,0.36588 0.473523,0.55862 0.203397,0.29 0.429848,0.56415 0.605524,0.87271 0.176309,0.29746 0.320224,0.61481 0.540241,0.88372 0.08555,0.13135 0.169508,0.26158 0.20928,0.41396 -2.304623,1.35721 -1.638818,1.80679 -2.124371,0.8542 -0.136344,-0.28361 -0.238512,-0.58364 -0.391173,-0.85988 -0.242332,-0.45293 -0.423327,-0.93507 -0.640531,-1.40011 -0.27043,-0.64089 -0.531956,-1.28477 -0.643725,-1.97679 -0.134772,-0.61785 -0.266984,-1.24723 -0.303835,-1.87861 -9.6e-4,-0.91378 0.60567,-2.71537 2.147429,-1.50093 0.08469,0.10696 0.115351,0.23249 0.15969,0.36157 0.06555,0.18069 0.09391,0.37003 0.174756,0.54373 0.08273,0.0915 0.188844,0.16265 0.252336,0.27155 0.0855,0.0973 0.149912,0.21169 0.249405,0.2945 0.113891,0.10132 0.225701,0.20623 0.301133,0.34061 0.112873,0.17748 0.205309,0.36275 0.288358,0.55546 0.08062,0.13232 0.183862,0.25329 0.247052,0.39474 0.05362,0.11072 0.121639,0.21473 0.179525,0.32284 0.113226,0.12567 0.227882,0.25064 0.352691,0.36497 0.222898,0.17517 0.420165,0.36391 0.584259,0.59791 0.260841,0.3306 0.565529,0.62092 0.855747,0.92498 0.325617,0.38354 0.667759,0.75714 0.954844,1.1705 0.03125,0.0461 0.307518,0.45956 0.269586,0.48612 -1.953131,1.368 -1.530282,1.89332 -2.051272,1.15568 -0.102917,-0.22156 -0.109444,-0.48281 -0.223531,-0.70176 -0.243789,-0.58973 -0.474117,-1.18467 -0.695836,-1.78305 -0.386299,-1.04851 -0.849714,-2.06362 -1.247449,-3.10774 -0.216318,-0.65875 -0.45948,-1.34092 -0.471556,-2.0409 0.0223,-0.97029 1.41467,-1.75984 2.30922,-1.39915 0.398394,0.23614 0.683541,0.61809 0.987076,0.95944 0.409897,0.51473 0.722873,1.08984 1.032895,1.66941 0.611961,1.14675 1.277194,2.26594 1.922312,3.39412 0.368221,0.61255 0.781641,1.19167 1.176398,1.78639 0.01218,0.0297 0.0221,0.0605 0.03654,0.0891 0.01327,0.0263 0.07026,0.0582 0.04631,0.0754 -0.28591,0.20605 -1.565585,0.69522 -1.983499,1.35236 -0.155164,-0.0158 -0.279754,-0.14641 -0.381655,-0.2589 -0.178385,-0.18844 -0.392817,-0.34277 -0.543991,-0.55657 -0.325212,-0.46424 -0.593266,-0.96265 -0.854029,-1.4654 -0.41203,-0.80278 -0.754745,-1.64075 -1.227179,-2.41183 -0.314316,-0.54677 -0.664252,-1.07552 -0.920259,-1.65364 0,0 2.0146,-1.10952 2.0146,-1.10952 z" />
    <path
       style="fill:#ffffff;fill-opacity:1;fill-rule:evenodd;stroke:none"
       id="path3839"
       d="m 88.509024,136.77309 c 0.206489,0.69801 0.50921,1.36429 0.76701,2.0446 0.285136,0.79341 0.561882,1.58713 0.922451,2.35011 0.05281,0.10223 0.100883,0.20705 0.158429,0.30669 0.03922,0.0679 0.182998,0.28657 0.225704,0.28336 0.03327,-0.002 0.04764,-0.1134 0.01779,-0.0985 -2.033138,1.0153 -1.819782,1.79826 -1.986473,0.80931 -0.422962,-1.32278 -1.205595,-2.4926 -1.997067,-3.61997 -0.295367,-0.41739 -0.619274,-0.81386 -0.970168,-1.18565 -0.132125,-0.14 -0.264952,-0.29046 -0.433163,-0.3867 0.003,0.032 -0.0195,0.11117 0.0088,0.096 0.670698,-0.36076 1.273496,-0.84834 1.968576,-1.15954 0.07736,-0.0346 0.07396,0.1527 0.116411,0.22606 0.07132,0.12324 0.14861,0.24293 0.224659,0.36331 0.30322,0.47996 0.348409,0.54041 0.677716,1.03354 0.770817,1.05051 1.471477,2.14928 2.239557,3.2016 0.213175,0.21155 0.674637,0.95514 0.980277,1.01738 0.08664,-0.0186 0.0489,0.004 0.106485,-0.0776 -0.638487,0.35924 -1.274017,0.72379 -1.915462,1.07773 -0.02886,0.0159 0.05756,-0.0358 0.0763,-0.063 0.06781,-0.0981 0.06652,-0.19052 0.08409,-0.30515 -0.04498,-0.77072 -0.247814,-1.52999 -0.418596,-2.28174 -0.198314,-0.73307 -0.234621,-1.50143 -0.438617,-2.23196 -0.238659,-0.67147 -0.457148,-0.0582 1.9379,-1.18 0.0444,-0.0208 0.01038,0.0975 0.01644,0.14617 0.0091,0.0728 0.01927,0.14545 0.0289,0.21818 0.08906,0.9319 0.146753,1.86526 0.308131,2.78836 0.08906,0.23711 0.167265,1.18154 0.354793,1.33918 -0.108824,-0.82616 0.01434,-0.0876 -1.980022,1.00811 -0.01281,0.007 0.03039,-0.0131 0.03445,-0.0271 0.009,-0.031 0.0025,-0.0645 0.0014,-0.0967 -0.006,-0.17004 -0.01424,-0.17087 -0.04833,-0.36016 -0.373454,-1.20656 -0.821938,-2.38883 -1.232986,-3.58315 -0.421477,-1.11567 -0.782428,-2.25929 -1.257469,-3.35423 -0.02453,-0.0438 -0.04906,-0.0877 -0.07359,-0.13156 -0.0076,0.008 -0.03243,0.0281 -0.0228,0.0231 0.670266,-0.3449 1.327017,-0.7166 2.006136,-1.04374 0.03193,-0.0154 -0.03837,0.0624 -0.04207,0.0977 -0.0194,0.18455 0.03846,0.34947 0.07929,0.52715 0.339976,1.10352 0.841452,2.15121 1.300319,3.20919 0.505726,1.10555 0.898024,2.25717 1.277358,3.41064 0,0 -1.962666,1.07378 -1.962666,1.07378 l 0,0 c -0.322477,-1.16548 -0.714502,-2.3137 -1.20916,-3.41805 -0.473393,-1.06105 -1.003925,-2.10097 -1.389507,-3.19787 -0.01549,-0.0501 -0.217521,-0.72573 -0.165162,-0.75933 1.354283,-0.86868 1.820062,-1.8538 2.183605,-0.89244 0.370343,1.14402 0.737036,2.28884 1.158089,3.41579 0.419506,1.19377 0.893473,2.36465 1.355303,3.54218 0.0091,0.0316 0.144738,0.63143 0.128125,0.64234 -1.971962,1.29564 -1.472047,1.71861 -2.123781,1.09437 -0.253293,-0.40322 -0.194738,-1.02944 -0.336994,-1.47572 -0.149805,-0.91708 -0.217051,-1.84397 -0.355,-2.7626 -0.0236,-0.11111 -0.07779,-0.35387 -0.06868,-0.36068 1.131173,-0.84505 1.824453,-2.05393 2.104926,-0.97628 0.156417,0.74856 0.194852,1.518 0.391363,2.25967 0.183591,0.76683 0.383383,1.53422 0.501019,2.31388 0.0058,1.1084 -1.009553,2.17467 -2.317218,1.65675 -0.410165,-0.29499 -0.65377,-0.77278 -0.970561,-1.15434 -0.732633,-1.07694 -1.421027,-2.18451 -2.213175,-3.21998 -0.324418,-0.45766 -0.655822,-0.9108 -0.978615,-1.36954 -0.05478,-0.0778 -0.228587,-0.17236 -0.15896,-0.23728 0.566819,-0.52857 1.231581,-0.94358 1.880197,-1.3678 0.03374,-0.0221 0.06213,0.0514 0.09319,0.0771 0.525544,0.49165 0.907456,1.12537 1.332034,1.69886 0.789767,1.15935 1.571519,2.34288 2.115172,3.64133 0.357518,1.03799 0.244,0.38698 -1.862637,1.64242 -0.09765,0.0582 -0.338728,-0.43075 -0.344406,-0.44201 -0.05274,-0.10452 -0.09999,-0.21172 -0.149987,-0.31759 -0.353152,-0.77191 -0.651553,-1.56411 -0.928786,-2.36623 -0.254354,-0.68637 -0.55661,-1.35275 -0.826521,-2.03262 0,0 2.01628,-1.09907 2.01628,-1.09907 z" />
    <path
       style="fill:#ffffff;fill-opacity:1;fill-rule:evenodd;stroke:none"
       id="path3841"
       d="m 90.149787,137.83088 c 0.0075,0.16284 0.05656,0.31632 0.102618,0.47091 0.02931,0.0744 0.03107,0.15547 0.04897,0.23222 0.06,0.10015 0.05771,0.22045 0.06284,0.33327 0.01479,0.16326 -0.0034,0.3297 0.0184,0.4922 0.003,0.007 0.0013,0.0238 0.0092,0.0224 0.0078,-0.002 -0.0012,-0.0158 -0.0038,-0.0234 -0.006,-0.0178 -0.005,-0.0605 -0.02162,-0.0519 -1.250372,0.64562 -1.002495,0.90946 -0.942101,0.45305 0.0076,-0.096 0.0078,-0.19235 0.0052,-0.28852 0.0063,-0.0623 -0.0038,-0.11153 -0.02634,-0.16805 -0.01469,-0.0382 -0.0051,-0.0235 -0.02405,-0.0466 0,0 0.995347,-0.58622 0.995347,-0.58622 l 0,0 c 0.03188,0.0486 0.0207,0.0247 0.03681,0.0698 0.02793,0.0695 0.05876,0.12824 0.04646,0.20597 -8.8e-4,0.10023 7.63e-4,0.20055 -0.0046,0.30068 -7e-6,1.6e-4 -0.005,0.12164 -0.0084,0.12406 -0.138392,0.0996 -0.894345,1.03473 -1.078238,0.52741 -0.03123,-0.16607 8e-4,-0.33883 -0.0175,-0.50683 -0.0065,-0.10156 -0.0029,-0.20872 -0.0583,-0.29801 -0.03129,-0.0769 -0.02046,-0.16268 -0.04756,-0.24207 -0.04214,-0.15938 -0.09116,-0.31683 -0.109628,-0.4814 0,0 1.016261,-0.53913 1.016261,-0.53913 z" />
    <path
       style="fill:#ffffff;fill-opacity:1;fill-rule:evenodd;stroke:none"
       id="path3843"
       d="m 92.409605,135.6063 c -0.0078,0.22236 0.0255,0.44308 0.05623,0.66257 0.01034,0.13997 0.03674,0.27864 0.04341,0.41877 -0.0042,0.008 0.02022,0.13666 0.0085,0.12762 -0.02459,-0.019 -0.03999,-0.0811 -0.05834,-0.10843 -0.0078,-0.0117 0.01166,0.0256 0.01749,0.0384 -0.0058,0.036 0.169311,0.34477 0.0448,0.14921 0.03393,0.0672 0.0397,0.14618 0.08152,0.20968 0.128716,0.14302 0.285956,0.25353 0.424019,0.3893 0.385425,0.33068 0.758489,0.67524 1.152349,0.9965 0.567452,0.45676 1.154978,0.88604 1.746525,1.31063 0.221046,0.18176 0.452296,0.35296 0.662986,0.54714 0.223587,0.20607 0.01634,0.0324 0.200492,0.18283 0.112213,0.1067 0.218225,0.21553 0.350539,0.29806 0.06797,0.0303 0.101286,0.10971 0.140486,0.16959 0.01091,0.0166 0.03806,0.0694 0.03205,0.0505 -0.0112,-0.0354 -0.08757,-0.15809 -0.0089,-0.0285 0.04655,0.0548 0.228096,0.42872 0.07014,0.13474 -1.028987,-2.82917 -8.833563,5.13694 -6.695455,3.5563 0.01261,0.0164 0.02175,0.0362 0.03782,0.0492 0.0038,0.003 0.0072,-0.006 0.0091,-0.0112 0.03499,-0.0846 -0.0415,-0.23392 -0.06941,-0.30816 -0.174803,-0.35173 -0.415897,-0.66643 -0.68819,-0.94765 -0.258228,-0.33487 -0.426239,-0.72642 -0.635803,-1.0915 -0.211282,-0.34212 -0.444408,-0.67279 -0.586528,-1.05079 -0.09124,-0.32062 -0.161888,-0.6469 -0.242675,-0.97056 -0.04499,-0.30433 -0.130593,-0.59473 -0.241869,-0.88028 -0.05758,-0.11313 -0.107832,-0.23037 -0.199833,-0.32002 -0.02074,0.0362 -0.0044,0.0206 -0.05313,-0.0285 -0.07286,-0.0734 -0.113357,-0.15587 -0.151783,-0.25057 -0.08045,-0.14428 -0.207457,-0.25986 -0.338164,-0.35829 -0.09803,-0.0876 -0.170603,-0.19601 -0.257854,-0.29411 -0.05192,-0.0648 -0.0084,0.0184 -0.02491,0.0626 -0.01534,0.041 -9.6e-4,0.0237 -0.05396,-0.0445 -0.248802,-0.24699 0.03839,0.13358 0.102787,0.25906 0.670986,2.50171 0.01256,0.10811 6.542233,-3.8858 0.01496,-0.009 -0.02006,-0.0426 -0.03684,-0.0375 -0.03017,0.009 -0.0028,0.10633 -0.02966,0.0898 -0.03076,-0.019 -0.04335,-0.0578 -0.06502,-0.0867 -0.01431,-0.002 -0.03049,-0.0142 -0.04293,-0.006 -0.136484,0.0815 0.04099,0.72046 0.06559,0.83239 0.07994,0.47037 0.298026,0.90469 0.391314,1.37098 0.01855,0.0927 0.02713,0.18716 0.04069,0.28074 0.06339,0.65743 0.100458,1.31672 0.20062,1.97014 0.05412,0.36012 0.162796,0.70832 0.235352,1.06408 0.06958,0.27968 0.130378,0.56186 0.163924,0.84828 0.06216,0.23717 0.09326,0.47269 0.110314,0.71693 0.01138,0.2492 0.06467,0.49523 0.153998,0.72786 0.0067,0.008 0.02424,0.0333 0.02014,0.0238 -1.129574,-2.63118 -2.021508,0.76917 -6.864393,3.40043 -0.01629,0.009 0.03326,-0.0189 0.0441,-0.0338 0.06467,-0.0898 -0.02541,-0.0334 0.06102,-0.0766 -0.0062,-0.0478 0.03406,-0.0842 0.03865,-0.12872 0.02534,-0.24589 -0.140338,-0.59216 -0.229995,-0.81086 -0.265858,-0.56284 -0.63118,-1.06604 -1.029891,-1.54074 -0.327312,-0.36937 -0.684593,-0.71084 -0.986667,-1.10184 -0.29987,-0.40058 -0.676626,-0.72848 -1.03691,-1.07169 -0.268522,-0.22006 -0.508268,-0.49919 -0.823722,-0.65499 -0.13853,-0.087 -0.23425,-0.20923 -0.327137,-0.33949 -0.0303,-0.0983 -0.148414,-0.19352 -0.147898,-0.29997 -0.02367,-0.11108 -0.07715,-0.20571 -0.131487,-0.30391 -0.06978,-0.0889 -0.135928,-0.24494 -0.232296,-0.30525 -0.122079,-0.0977 -0.190004,-0.22876 -0.324783,-0.31113 -0.124962,-0.0817 -0.195707,-0.23841 -0.337092,-0.29321 -0.122544,-0.0967 -0.236258,-0.19747 -0.319537,-0.33277 -0.08898,-0.12191 -0.02517,-0.0345 -0.117332,-0.15653 0.04875,0.16275 -0.09216,-0.13712 -0.06169,0.0309 -0.09258,-0.0926 -0.196647,-0.17747 -0.293024,-0.27374 -0.06222,-0.0598 -0.131545,-0.11223 -0.195356,-0.17009 -0.0135,-0.0122 -0.02195,-0.0302 -0.03733,-0.0399 -0.005,-0.003 -0.01112,0.004 -0.01668,0.006 -0.07886,-0.0467 -0.05837,0.0526 -0.08109,0.042 -0.17834,-0.0836 0.01534,-0.0377 -0.08728,-0.059 -0.03874,-0.0162 -0.06149,0.002 -0.09997,0.007 -0.01972,0.002 -0.06578,-0.0102 -0.05904,0.008 0.01994,0.0554 0.05609,0.10353 0.08413,0.1553 2.199969,-1.27077 4.399939,-2.54155 6.599908,-3.81232 -0.01994,0.0171 -0.0898,-0.19146 -0.141336,-0.16611 -0.008,0.004 -0.0081,0.0158 -0.01222,0.0238 -0.01393,0.0177 0.01326,0.0558 -0.0048,0.0713 -0.0081,0.007 -0.01786,-0.0157 -0.02844,-0.0145 -0.0121,0.002 0.02674,0.10626 0.0302,0.11585 0.03473,0.0687 0.05377,0.14338 0.07967,0.21559 0.06609,0.16008 -0.180389,-0.32639 -0.04275,-0.0522 0.0078,0.0156 0.01558,0.0313 0.02338,0.0469 0.06702,0.0572 0.01158,0.0723 0.03494,0.12026 0.0045,0.009 0.01826,0.0366 0.01571,0.0266 -0.03298,-0.12935 -0.01702,-4.6e-4 -0.02522,-0.0806 0.03808,0.0265 -0.06178,-0.14012 -0.02333,-0.12165 0.02434,0.0117 0.137622,0.1361 0.156423,0.15778 2.3e-5,2e-5 0.0749,0.0692 0.08334,0.0702 0.0018,2.3e-4 0.01883,-0.0645 0.03998,-0.0426 0.0325,0.0336 0.05562,0.0752 0.08344,0.11279 0.08318,0.12416 0.136701,0.25041 0.15021,0.27157 0.08556,0.0986 0.13938,0.21528 0.193315,0.33341 -0.01607,0.033 0.05086,0.0581 0.04223,0.0901 -0.0046,0.0172 -0.0407,-0.0574 -0.03459,-0.0407 0.01789,0.049 0.04324,0.0949 0.06179,0.14358 0.05722,0.15859 0.130781,0.30291 0.247258,0.42548 0.119368,0.10242 0.209634,0.22644 0.301077,0.35333 0.107736,0.15629 0.200716,0.32178 0.290125,0.48901 0.107135,0.13214 0.193134,0.28173 0.30325,0.41248 0.01657,0.0174 0.03017,0.0382 0.0497,0.0521 0.0058,0.004 0.01537,-0.005 0.02144,-0.002 0.05736,0.0358 0.104421,0.1054 0.14195,0.16021 -2.249319,1.24391 -4.498638,2.48782 -6.747957,3.73172 0.0019,0.003 0.01802,0.0254 -0.0035,0.008 -0.0555,-0.1262 -0.14,-0.23557 -0.217664,-0.34838 -0.09596,-0.13049 -0.215992,-0.24235 -0.310637,-0.37523 -0.07418,-0.10925 -0.154123,-0.21182 -0.226554,-0.32231 0.0047,0.0471 0.0034,0.003 -0.03132,-0.0306 -0.0043,-0.004 0.0046,0.0222 2.97e-4,0.018 -0.03858,-0.0379 -0.06947,-0.0939 -0.105941,-0.13543 -0.0347,-0.0218 -0.203785,-0.35222 -0.108034,-0.15324 0.0091,0.0492 -0.0519,-0.11222 -0.05278,-0.0802 -5.34e-4,0.0197 0.04209,0.06 0.02331,0.0542 -0.03941,-0.0122 -0.03199,-0.0956 -0.07302,-0.1 -0.01317,-0.002 0.0077,0.0254 0.01152,0.038 -0.08943,-0.10623 -0.149165,-0.2086 -0.182723,-0.27119 0.01171,0.0639 -0.07343,-0.0216 -0.08935,-0.0359 -0.0079,-0.006 -0.02201,-0.0281 -0.02386,-0.0182 -0.0034,0.0177 0.03326,0.06 0.01769,0.051 -0.04437,-0.0257 -0.04966,-0.099 -0.09653,-0.11972 -0.0097,-0.004 0.0074,0.0206 0.006,0.0311 -6.92e-4,0.006 -0.0078,0.007 -0.01159,0.0107 -0.0019,0.0322 -0.112552,-0.10888 -0.124016,-0.10036 -0.01062,0.008 0.0089,0.0256 0.0084,0.0388 -2.52e-4,0.006 -0.007,0.0108 -0.01051,0.0162 -0.0063,-0.0102 -0.0202,0.0276 -0.02715,0.019 -0.0048,-0.006 -0.166931,-0.22518 -0.188922,-0.26008 0.0085,0.0641 -0.0859,-0.0464 -0.09462,-0.055 -0.04281,-0.0245 -0.177127,-0.23547 -0.173298,-0.26728 0.0017,-0.0137 0.01681,0.0218 0.02522,0.0326 5.4e-5,-0.002 -0.01547,-0.0209 -0.01295,-0.0148 0.07742,0.18624 -0.005,0.0151 -0.05854,-0.0443 -0.06829,-0.0846 -0.108445,-0.19268 -0.153666,-0.29177 -0.05099,-0.14039 -0.116476,-0.27563 -0.113806,-0.42792 0.02094,0.0338 0.03242,0.0758 0.06282,0.10151 0.01037,0.009 -0.0799,-0.19813 -0.06006,-0.16425 0.04566,0.078 0.07033,0.18613 0.13908,0.25427 2.061404,1.55307 0.04153,0.0348 6.801764,-3.6504 0.01266,-0.007 -0.02183,-0.0515 -0.01117,-0.0418 0.0023,0.002 0.06816,0.10811 0.07816,0.12416 0,0 -6.684332,3.85804 -6.684332,3.85804 l 0,0 c 0.01202,0.0162 0.04225,0.069 0.03142,0.0519 -1.414432,-2.23097 6.188992,-6.32683 6.717533,-3.75794 0.03076,0.11166 0.08739,0.21116 0.123381,0.32182 0.0399,0.12265 -0.08936,-0.2111 -0.08572,-0.13876 0.0024,0.0473 0.02905,0.0901 0.04358,0.13521 -0.107728,-0.0557 -0.130855,-0.18472 -0.205161,-0.26885 -0.04185,-0.005 -0.103265,-0.10468 -0.07714,-0.0798 0.01079,0.015 0.0046,0.009 0.01821,0.019 0.0012,-0.004 8e-4,-0.0165 0.0037,-0.013 0.05102,0.0608 0.08807,0.12637 0.128664,0.19308 0.16355,0.25839 -0.09862,-0.12315 0.0043,-0.002 0.0063,0.005 0.01266,0.009 0.01898,0.0135 0.0056,4e-5 0.01207,-0.003 0.01678,1.2e-4 0.05376,0.0346 0.07826,0.118 0.130504,0.15381 -0.01085,-0.0214 -0.0288,-0.0403 -0.03255,-0.064 -0.0034,-0.0215 0.08603,0.11039 0.06616,0.0664 -0.02155,-0.0478 -0.05814,-0.0874 -0.08177,-0.13412 -0.01092,-0.0216 0.0762,0.0798 0.05586,0.0464 0.02822,0.025 0.101613,0.13636 0.141428,0.12247 0.0062,-0.002 0.0046,-0.0186 0.01097,-0.0166 0.01353,0.004 0.02039,0.0197 0.03059,0.0295 0.03515,0.0353 0.06599,0.0747 0.101375,0.10972 0.0087,0.009 -0.01118,-0.0441 -0.0014,-0.0367 0.03498,0.0265 0.05449,0.0693 0.08698,0.0988 0.01422,0.0121 0.03259,0.0187 0.04634,0.0313 0.063,0.0576 0.09636,0.14875 0.156102,0.2088 0.03344,0.0203 0.09665,0.14809 0.03282,0.0409 -0.01345,-0.0226 0.01303,0.0396 0.02403,0.0126 0.06102,0.0778 0.10952,0.12545 0.169824,0.20162 0.09146,0.14753 0.0403,0.0994 0.125884,0.19913 0.04607,0.0885 0.136944,0.15032 0.17511,0.24629 0.02916,0.0993 0.115591,0.17488 0.162886,0.26544 0.0799,0.12886 0.190135,0.23614 0.278224,0.35931 0.05213,0.0604 0.107594,0.11767 0.159158,0.17859 0.02409,0.0285 0.04066,0.0641 0.06961,0.0875 0.0052,0.004 0.01321,0.002 0.01982,0.004 1.708465,2.2379 -5.361133,4.3737 -6.572338,4.04673 0.09256,0.10832 -0.04459,-0.12553 -0.05946,-0.14886 -0.100092,-0.17219 -0.23762,-0.315 -0.342833,-0.48331 -0.07454,-0.12969 -0.141994,-0.26398 -0.237478,-0.38034 -0.100349,-0.11909 -0.201009,-0.23731 -0.290551,-0.36484 -0.111485,-0.17059 -0.239142,-0.33103 -0.329882,-0.51476 -0.06805,-0.0794 -0.1817,-0.18933 -0.167645,-0.29555 0.0015,-0.0158 -0.0026,-0.0265 0.0096,-0.0119 0.06786,0.0813 -0.160171,-0.19094 -0.08926,-0.11883 -0.04495,-0.0502 -0.07399,-0.10967 -0.108242,-0.16672 -0.0092,-0.0154 -0.03793,-0.0606 -0.03034,-0.0444 0.01902,0.0407 0.04811,0.0761 0.0679,0.11647 0.113714,0.20893 -0.06808,-0.0629 -0.138798,-0.0758 -0.0053,0.006 -0.0089,0.0142 -0.01596,0.0182 -0.0058,0.003 -0.01574,-0.003 -0.01978,0.002 -0.0068,0.009 0.0041,0.0354 -0.0068,0.0329 -0.05461,-0.0129 -0.129228,-0.14708 -0.171211,-0.18925 -0.07871,-0.11168 -0.141501,-0.22831 -0.20307,-0.34962 -0.0032,-0.006 0.0089,0.011 0.01338,0.0164 0.06485,0.11734 -0.15546,-0.19849 -0.115545,-0.21483 0.0187,-0.0413 0.03122,-0.0602 0.01839,-0.10951 -0.02265,-0.1213 -0.09967,-0.22373 -0.104411,-0.34738 -0.748059,-2.79791 -0.687063,-0.67442 6.524868,-4.25152 0.04138,0.0479 0.08041,0.098 0.124121,0.14375 0.05413,0.0567 0.16218,0.0647 0.219608,0.11862 0.01865,0.009 0.0373,0.0188 0.05595,0.0282 0.0056,-0.006 0.0085,-0.0223 0.01681,-0.0198 0.06924,0.021 0.139911,0.1463 0.20312,0.18806 0.0803,0.0833 0.159452,0.16648 0.249072,0.23973 0.03059,0.019 0.05798,0.0432 0.09,0.0596 0.02732,0.014 0.06118,0.0126 0.08783,0.0278 0.01923,0.011 0.03105,0.0346 0.05224,0.0411 0.0078,0.002 0.0021,-0.0161 0.0031,-0.0242 0.143717,0.14858 0.147326,0.13521 0.259283,0.28557 0.04634,0.0717 0.101646,0.14003 0.146762,0.21367 -0.0061,-0.009 -0.0116,-0.0191 -0.01836,-0.028 -0.0051,-0.006 0.009,0.0144 0.01348,0.0216 0.0067,0.008 0.01231,0.0165 0.02009,0.0231 0.0074,0.006 0.01657,0.0101 0.02486,0.0151 0.02028,0.0206 0.04056,0.0411 0.06084,0.0617 0.01117,0.0105 0.0238,0.0193 0.0357,0.029 0.114252,0.12085 0.238295,0.22647 0.365256,0.33358 0.112327,0.13322 0.233633,0.25434 0.36076,0.37318 0.107361,0.13912 0.206438,0.28337 0.30829,0.42647 0.08202,0.12499 0.150331,0.25841 0.218013,0.39136 0.01225,0.0222 0.02685,0.0434 0.03674,0.0668 0.0011,0.002 -0.0085,-0.003 -0.0086,-3.5e-4 -0.0022,0.0451 0.04142,0.0876 0.06352,0.12032 0.02783,0.0701 0.09241,0.12795 0.134753,0.18896 0.2218,0.27686 0.436717,0.55843 0.68851,0.80992 0.359302,0.38964 0.780628,0.71541 1.121571,1.1218 0.302185,0.38335 0.59846,0.77155 0.89185,1.16164 0.384261,0.53764 0.763106,1.07988 1.100095,1.64888 0.104187,0.16284 0.208886,0.32535 0.312738,0.4884 0.109344,0.17167 0.234255,0.35136 0.302136,0.54568 0.01196,0.0342 0.01326,0.0714 0.01989,0.10699 0.08384,0.32649 0.01664,0.002 0.02807,0.20695 0.0016,0.0286 0.04025,0.0704 0.01534,0.0845 -1.134623,0.64333 -5.861623,6.18212 -6.897371,3.46399 -0.0072,-0.0188 0.0044,-0.04 0.0066,-0.06 0.01856,-0.26201 8.8e-4,-0.52512 -0.06889,-0.77941 -0.02331,-0.11278 -0.06744,-0.22758 -0.08432,-0.34103 -0.01724,-0.1159 0.003,-0.23951 -0.03026,-0.35433 -0.04934,-0.27621 -0.04474,-0.56165 -0.129553,-0.83271 -0.02925,-0.16514 -0.06482,-0.33168 -0.08175,-0.49862 -0.02275,-0.22432 -0.0087,-0.21409 -0.0053,-0.44584 0.0014,-0.0919 1.27e-4,-0.18392 1.9e-4,-0.27588 -0.02747,-0.63604 -0.08233,-1.27065 -0.216836,-1.89404 -0.114662,-0.52459 -0.166384,-1.068 -0.38181,-1.566 -0.152706,-0.34762 -0.33944,-0.6789 -0.482801,-1.02982 -0.01902,-0.0598 -0.09445,-0.13741 -0.02909,-0.17932 0.0059,-0.004 0.02018,0.002 0.02064,-0.005 0.0018,-0.0269 -0.03804,-0.0653 -0.01511,-0.0794 6.500776,-4.02472 4.378713,-5.30512 6.604211,-3.94234 0.02802,0.025 0.05968,0.0464 0.08405,0.075 0.05418,0.0635 0.122349,0.23868 0.232497,0.269 -7.37e-4,-0.0109 -0.01314,-0.033 -0.0022,-0.0327 0.02354,5e-4 0.192107,0.2404 0.204517,0.26411 0.05181,0.0798 0.109356,0.15444 0.164555,0.2322 0.135292,0.18405 0.307858,0.33402 0.451082,0.5117 0.0767,0.0819 0.0962,0.10179 0.180172,0.22008 0.104089,0.18514 0.197927,0.37272 0.24309,0.58266 0.06333,0.31577 0.162113,0.62357 0.23568,0.9369 0.06282,0.30529 0.126021,0.61076 0.209104,0.91131 0.08516,0.34169 0.230188,0.66626 0.424216,0.96036 0.195367,0.33197 0.410165,0.65188 0.643681,0.95824 0.232653,0.34784 0.456706,0.7022 0.745166,1.00847 0.167838,0.2 0.328987,0.40059 0.402508,0.6559 0.396861,2.63657 -4.440821,2.99572 -6.548453,4.17123 -0.09185,0.0512 -0.124836,-0.16929 -0.187293,-0.25391 -0.06242,-0.0846 -0.02488,-0.0315 -0.0974,-0.1394 -0.02929,-0.0505 -0.05858,-0.10101 -0.08786,-0.15151 0.02793,-0.0154 0.06478,0.0828 0.03483,0.0302 0.0029,0.0574 0.0035,0.0301 -0.07376,-0.10584 -9.6e-4,-0.002 0.0421,0.0487 0.03706,0.0439 -0.01098,-0.0104 -0.01746,-0.0247 -0.0262,-0.037 -0.102227,-0.13393 -0.218162,-0.25667 -0.316538,-0.3939 -0.187924,-0.27147 -0.396261,-0.52823 -0.626691,-0.76521 -0.107917,-0.10989 -0.292783,-0.30031 -0.402809,-0.40299 -0.371217,-0.3464 -0.78729,-0.6414 -1.203617,-0.93035 -0.320586,-0.20866 -0.302601,-0.20463 -0.628132,-0.38738 -0.225097,-0.12637 -0.462231,-0.23597 -0.679528,-0.37608 -0.04894,-0.0315 -0.09454,-0.068 -0.141811,-0.10203 -0.207709,-0.139 -0.4059,-0.28581 -0.571189,-0.47531 -0.07943,-0.0969 -0.15753,-0.19751 -0.21799,-0.30685 -0.0262,-0.0443 -0.09385,-0.15169 -0.0607,-0.18507 0.0026,-0.002 0.0051,0.006 0.0077,0.008 -0.06234,-0.11885 -0.132905,-0.23225 -0.101809,-0.36977 0.0057,-0.13625 0.0272,-0.27168 0.02495,-0.40847 0.0057,-0.18973 0.01322,-0.38709 -0.0627,-0.56543 0,0 6.775076,-3.59422 6.775076,-3.59422 z" />
    <path
       style="fill:#ffffff;fill-opacity:1;fill-rule:evenodd;stroke:none"
       id="path3845"
       d="m 87.988031,141.82597 c -0.121134,-0.56061 -0.372655,-1.08506 -0.602438,-1.60767 -0.195462,-0.48466 -0.461914,-0.94273 -0.793515,-1.34716 -0.0013,-0.005 -0.345616,-0.40401 -0.259494,-0.17405 0.02649,0.0707 0.06614,0.13579 0.0992,0.20369 2.181258,-1.33329 4.379675,-2.63892 6.543773,-3.99988 0.02824,-0.0178 -0.03735,-0.0755 -0.07042,-0.0711 -0.02638,0.003 0.005,0.0534 0.01289,0.0788 0.01444,0.0462 0.03494,0.0904 0.05384,0.13504 0.08591,0.20273 0.08456,0.19108 0.188049,0.39565 0.285313,0.56015 0.534097,1.1389 0.779302,1.71761 0.256034,0.5743 0.419152,1.18289 0.632474,1.77305 0.160785,0.40029 0.400466,0.75993 0.623233,1.12693 0.0941,0.13646 0.11103,0.32076 0.224475,0.44451 0.0522,0.057 0.04496,0.0355 0.06021,-0.009 -2.232687,1.24816 -4.470271,2.4876 -6.698062,3.74448 -0.01982,0.0112 0.06592,0.0186 0.06814,-0.004 0.0094,-0.0955 -0.143586,-0.45262 -0.162064,-0.49504 -0.157501,-0.36165 -0.250887,-0.52232 -0.440851,-0.88531 -0.571578,-1.02448 -1.346356,-1.90501 -2.13031,-2.76898 -0.35878,-0.3677 -0.683739,-0.76409 -0.994436,-1.17235 0.05894,0.0659 -0.100714,-0.10095 -0.0832,-0.0694 0.08981,0.16192 0.12138,0.56661 0.283721,0.47756 2.146825,-1.38869 4.29365,-2.77737 6.440474,-4.16606 -0.0048,0.0232 -0.01786,0.0461 -0.01452,0.0695 0.0073,0.0509 0.03029,0.0982 0.04542,0.14734 0.0267,0.0607 0.04907,0.12354 0.08012,0.18217 0.04426,0.0836 0.250845,0.40332 0.29087,0.46517 0.233246,0.36047 0.470015,0.71732 0.71441,1.07035 0.602349,0.87701 1.280553,1.69794 1.920773,2.54704 0.363854,0.50639 0.71322,1.02324 1.080807,1.52692 1.982822,2.00528 -2.078562,1.44495 -6.587967,3.85795 -0.0093,0.005 -0.003,-0.0211 -0.0065,-0.0311 -0.01297,-0.0366 -0.02862,-0.0721 -0.04292,-0.10813 -0.129886,-0.30314 -0.35452,-0.55028 -0.539324,-0.81926 -0.185474,-0.26996 -0.237934,-0.37519 -0.404205,-0.66428 -0.439918,-0.79501 -0.75701,-1.64784 -1.057589,-2.50272 -0.208975,-0.56608 -0.318402,-1.15516 -0.396626,-1.75083 -0.04417,-0.39609 -0.127788,-0.78409 -0.273603,-1.15504 -0.0094,-0.0171 -0.0173,-0.0351 -0.02817,-0.0514 -0.01094,-0.0163 -0.04725,-0.0475 -0.05172,-0.0284 -0.02923,0.12503 0.123116,0.22547 0.189291,0.3355 2.177904,-1.32707 4.355808,-2.65414 6.533713,-3.98121 -0.05302,0.0829 -0.04694,0.0542 -0.04379,0.19183 0.0074,0.32221 0.06457,0.64774 0.103644,0.96685 0.09548,0.82329 0.252141,1.63698 0.498311,2.42839 0.134572,0.44448 0.322466,0.87277 0.592262,1.25163 0,0 -6.511063,3.68351 -6.511063,3.68351 l 0,0 c -0.147305,-0.49394 -0.273699,-0.9941 -0.422031,-1.48784 -0.06489,-0.271 -0.136232,-0.54047 -0.197688,-0.81227 -0.122977,-0.54389 -0.197182,-1.09892 -0.355837,-1.63466 -0.07142,-0.22637 -0.108537,-0.37669 -0.209855,-0.58607 -0.03427,-0.0708 -0.07815,-0.1366 -0.117431,-0.20479 -1.431398,-2.48468 0.545973,-1.02472 6.368087,-4.38468 0.192627,0.29148 0.287657,0.41424 0.334736,0.74929 0.009,0.42908 0.07206,0.85432 0.131244,1.27871 0.02287,0.17432 0.05181,0.34788 0.07068,0.52268 0.04394,0.40696 0.02315,0.82029 0.111338,1.22268 0.02743,0.12852 0.04962,0.25825 0.08229,0.38553 0.176208,0.68637 0.481775,1.32887 0.885914,1.91009 0.364574,0.47138 0.757652,0.88352 1.215023,1.26618 2.187885,1.86269 -4.296529,2.6738 -6.52003,3.94764 -0.026,0.0149 0.03804,0.0618 0.06788,0.059 0.05678,-0.006 -0.09049,-0.1977 -0.0046,-0.17102 -0.07023,-0.57962 -0.317831,-1.11148 -0.615363,-1.60899 -0.560233,-0.88471 -1.169636,-1.74227 -1.884117,-2.5104 -0.497619,-0.53762 -1.025535,-1.04563 -1.512529,-1.59311 -0.04106,-0.0474 -0.08167,-0.0951 -0.123182,-0.14208 -0.04,-0.0452 -0.170833,-0.0999 -0.121343,-0.13452 4.960683,-3.46866 5.156948,-6.49703 6.707023,-3.78853 0.02018,0.0353 -0.0406,0.0903 1.42e-4,0.12189 0.04485,0.46 0.291493,0.86528 0.519108,1.25674 0.57873,1.01339 1.231206,1.98769 2.023349,2.84858 0.385498,0.42628 0.319327,0.36492 0.697171,0.74169 0.14479,0.14439 0.300659,0.27763 0.441684,0.42568 1.984051,2.08303 -2.924778,1.98107 -6.507746,4.01983 -0.111194,-0.23432 -0.196702,-0.48092 -0.30412,-0.71714 -0.128136,-0.43687 -0.279852,-0.86521 -0.455289,-1.28554 -0.205365,-0.58116 -0.390348,-1.1691 -0.59923,-1.749 -0.221269,-0.54349 -0.471072,-1.0796 -0.825607,-1.55093 -0.146526,-0.19298 -0.1195,-0.16503 -0.26991,-0.33598 -0.0014,-0.002 -0.212186,-0.23373 -0.219502,-0.24352 -1.682967,-2.25056 4.465486,-3.04773 6.414591,-4.25811 0.09219,0.13381 0.201472,0.27214 0.27643,0.41825 0.03278,0.0639 0.05486,0.1328 0.08554,0.19773 0.0221,0.0468 0.04571,0.0928 0.06857,0.13926 0.105313,0.21611 0.154243,0.38879 0.231515,0.61467 0.09914,0.28981 0.114201,0.31508 0.244387,0.608 0.04834,0.10877 0.09806,0.21692 0.147097,0.32539 0.232719,0.4906 0.485387,0.99464 0.897369,1.36125 0,0 -6.622353,3.81948 -6.622353,3.81948 z" />
    <path
       style="fill:#ffffff;fill-opacity:1;fill-rule:evenodd;stroke:none"
       id="path3847"
       d="m 88.124604,140.52273 c -0.03405,-0.47808 -0.169982,-0.96085 -0.347691,-1.40523 -0.0525,-0.069 -0.09894,-0.27058 -0.187994,-0.31436 -0.01746,-0.009 -0.130398,0.19612 0.0065,0.11788 2.234564,-1.2776 4.435735,-2.61275 6.653602,-3.91912 -0.0072,-0.006 -0.02438,-0.0266 -0.02166,-0.0177 0.01974,0.0649 0.08107,0.15376 0.113901,0.20867 0.112925,0.18883 0.23087,0.37028 0.356775,0.55087 0.290388,0.45225 0.624397,0.87336 0.953206,1.29768 0.115947,0.16274 0.271876,0.29529 0.381251,0.46212 0.04703,0.10646 0.146596,0.15334 0.230858,0.22709 0.07888,0.0153 0.113375,0.0822 0.169609,0.13104 0.06717,0.0583 0.150346,0.10753 0.230129,0.14577 0.09941,0.0844 0.219661,0.1404 0.346911,0.16764 0.0274,0.0394 0.05481,0.0789 0.08221,0.11829 -0.0059,-0.0166 0.0213,-0.0106 0.02561,-0.006 0.02839,0.0272 0.02814,0.0568 0.0217,0.008 0.0036,0.005 0.08301,0.10771 0.10058,0.11873 0.0047,0.003 0.0034,-0.0117 0.0082,-0.0146 0.0058,-0.003 0.01705,0.003 0.02027,-0.002 0.0058,-0.0106 -0.01031,-0.0413 6.9e-4,-0.0363 0.02753,0.0126 0.042,0.0436 0.063,0.0654 0.08142,-0.005 0.13178,0.15322 0.191288,0.0696 0.04567,0.0376 0.09983,0.0584 0.159144,0.0629 0.01426,8e-4 0.02968,-0.0105 0.04266,-0.005 0.0538,0.0249 0.09448,0.0717 0.142606,0.1063 0.03972,0.0288 0.08043,0.0565 0.117529,0.0887 0.0082,0.007 0.0296,0.0311 0.02374,0.0221 -1.623209,-2.5164 -0.903696,0.0435 -6.720655,3.70989 0.05443,-0.0235 -0.0343,-0.0466 0.07589,0.0835 0.0059,0.007 -0.01035,-0.0315 -0.0022,-0.0274 0.0031,0.002 0.06334,0.11569 -0.0044,-0.0113 -0.06595,-0.12141 -0.140371,-0.23652 -0.209446,-0.35701 -0.01607,-0.0325 -0.233252,-0.45246 -0.07767,-0.15355 0.01254,0.025 0.0511,0.0997 0.03764,0.0751 -0.09221,-0.16827 -0.173622,-0.31966 -0.214188,-0.50515 0.01493,0.0204 0.04374,0.0864 0.04479,0.0612 0.0046,-0.1109 -0.08912,-0.18376 -0.04586,-0.20846 5.919716,-3.38026 5.1334,-5.75247 6.899893,-3.51427 0.170299,0.28267 0.09754,0.17729 0.163076,0.28009 0.05904,0.0734 0.08906,0.16499 0.12469,0.25124 -0.0328,-0.055 -0.07769,-0.0993 -0.04426,-0.0918 0.06675,0.0666 -0.02961,-0.0372 0.01604,-0.0949 -0.06412,-0.14062 0.107913,0.10884 0.126601,0.13082 0.01171,0.0138 0.04341,0.0572 0.03569,0.0409 -0.119547,-0.21325 -0.07458,-0.12089 -0.143624,-0.27264 -0.668326,-2.5028 -0.0058,-0.0873 -6.581856,3.79924 -0.0087,0.005 0.01841,0.009 0.02571,0.0163 0.0209,0.0202 0.06008,0.0949 0.09875,0.0636 0.01842,-0.0474 0.01426,-0.0994 0.01123,-0.14938 -0.35751,-2.56254 5.311642,-5.91786 6.798178,-3.71822 0.06622,0.10171 0.07546,0.15817 0.07924,0.16654 0.0056,0.0125 0.02334,0.0494 0.01841,0.0366 -0.0068,-0.0177 -0.01608,-0.0342 -0.02412,-0.0514 0.03157,0.0578 0.07396,0.10822 0.119637,0.15523 1.800882,1.8392 0.01934,0.0143 -6.777403,3.61959 -0.0047,0.002 0.003,-0.0193 0.0059,-0.0149 0.0088,0.013 0.08236,0.15592 0.09622,0.18588 0.007,0.015 -0.01546,-0.0293 -0.02318,-0.0439 -0.0075,-0.0201 -0.02374,-0.035 -0.03356,-0.0536 -0.03758,-0.0714 -0.07631,-0.14218 -0.110244,-0.21532 -0.026,-0.0561 -0.12723,-0.19358 -0.06938,-0.17189 0.0825,0.031 0.08081,0.157 0.129594,0.23037 0.991634,2.92771 9.263274,-2.64804 6.83007,-3.51716 -0.02892,0.002 -0.02357,0.0328 -0.02177,0.0551 6.56e-4,0.004 0.0037,0.0166 0.002,0.0127 -0.0078,-0.0183 -0.01369,-0.0375 -0.02054,-0.0562 -2.236513,1.28024 -4.476039,2.55523 -6.709539,3.84072 -0.01597,0.009 0.01621,0.0681 0.04422,0.12177 -0.09654,-0.12071 -0.188526,-0.23658 -0.252529,-0.37805 -0.0694,-0.10776 -0.136401,-0.21712 -0.196616,-0.3303 -0.05911,-0.14012 -0.167694,-0.24531 -0.273083,-0.35158 -0.0594,-0.0273 -0.379609,-0.24704 -0.410525,-0.24589 -0.0144,5.4e-4 -0.01097,0.0266 -0.01645,0.04 0.0025,0.0201 0.002,0.0407 0.0075,0.0602 0.0045,0.0158 0.07438,0.19128 0.08991,0.18213 2.200072,-1.29542 4.385127,-2.61747 6.540251,-3.98636 0.03944,-0.025 -0.05067,-0.14111 -0.08608,-0.11062 0.009,0.11205 0.03314,0.17871 0.09423,0.271 0.0995,0.14765 0.187496,0.30226 0.276296,0.45642 0.01711,0.0293 0.03289,0.0594 0.05134,0.0879 0.04066,0.0627 0.14126,0.24324 0.189704,0.28698 0.0058,0.006 -0.0016,-0.0154 -0.0024,-0.0231 0.112093,0.17365 0.18281,0.3751 0.27354,0.5613 -2.327847,1.08918 -4.655693,2.17836 -6.983539,3.26755 0.02526,0.0323 -0.03689,-0.0892 -0.01995,-0.0713 0.01989,0.021 0.02597,0.0538 0.04817,0.0723 0.0053,0.005 -0.0064,-0.0329 -0.02916,-0.10991 0.0071,0.006 0.02159,0.0282 0.02146,0.0187 -9.6e-4,-0.0687 -0.09851,-0.20788 -0.128315,-0.25762 -0.0983,-0.16402 -0.125319,-0.21765 -0.221596,-0.39313 -0.322378,-0.56437 -0.661469,-1.12247 -1.038403,-1.65229 -0.174366,-0.29402 -0.430985,-0.5224 -0.642703,-0.78595 -0.08765,-0.0798 -0.169932,-0.1607 -0.24311,-0.25561 -0.04201,-0.0258 -0.113161,-0.15151 -0.05672,-0.0112 0,0 6.50698,-4.1276 6.50698,-4.1276 l 0,0 c 0.0498,0.0676 0.09507,0.13476 0.139217,0.20572 0.08731,0.10844 0.160089,0.22905 0.228382,0.35041 0.145279,0.30952 0.273596,0.62666 0.428311,0.93181 0.287854,0.55698 0.604454,1.10828 1.050853,1.55532 0.242266,0.23502 0.513785,0.45406 0.698411,0.73894 0.01718,0.0589 0.06951,0.12621 0.09133,0.17472 0.0018,0.004 -0.01058,0.0193 -0.01271,0.0222 -2.325436,1.10656 -4.650872,2.21312 -6.976307,3.31967 0.03825,0.0747 0.0735,0.15104 0.114751,0.22413 0.0075,0.0134 0.02692,0.0152 0.03882,0.0249 0.05186,0.0425 0.002,0.0106 0.0662,0.079 0.0037,0.004 0.01038,0.003 0.01558,0.005 -0.01715,-0.0322 -0.03738,-0.0628 -0.05146,-0.0964 -0.01304,-0.0311 -0.0114,-0.0668 -0.02218,-0.0988 -0.0276,-0.0819 -0.07218,-0.15743 -0.119088,-0.22945 -0.08965,-0.14267 -0.205095,-0.26896 -0.294686,-0.41237 -0.09031,-0.14194 -0.1757,-0.28772 -0.240215,-0.44316 -0.02601,-0.0517 -0.125856,-0.2486 -0.121255,-0.2516 5.54703,-3.6198 5.021799,-6.04031 6.756524,-3.78242 0.12045,0.16788 0.283964,0.28769 0.43261,0.43013 0.176966,0.15462 0.355647,0.30618 0.472714,0.51451 0.05385,0.0922 0.110468,0.18004 0.176518,0.26408 0.0762,0.0803 0.0179,0.0295 0.02486,0.006 0.0017,-0.006 0.0118,0.006 0.01774,0.004 0.03308,-0.007 -0.140651,-0.158 -0.04789,-0.11444 0.07363,0.0846 0.06308,0.0686 0.108402,0.12838 0.01106,0.0146 0.04866,0.0346 0.0329,0.0439 -0.04757,0.0281 -6.100427,6.3606 -6.693328,3.7972 0.001,-0.0556 -0.01778,-0.10966 -0.02042,-0.16537 -0.576764,-2.90917 5.812761,-6.43786 6.886632,-3.54366 0.03111,0.0665 0.13446,0.28618 0.137825,0.30169 0.0073,0.0337 -0.252269,-0.478 -0.186361,-0.30824 0.05201,0.0886 0.105588,0.17469 0.141791,0.27412 0.0057,0.0155 0.0159,0.0416 0.0014,0.0496 -2.257817,1.24242 -4.52974,2.45903 -6.79461,3.68853 -1.57e-4,-0.002 -3.16e-4,-0.004 -4.74e-4,-0.006 -0.0086,-0.039 -0.02626,-0.0777 -0.05536,-0.10538 -0.04439,-0.0708 -0.106679,-0.1684 -0.140068,-0.24709 -0.0074,-0.0174 0.02378,0.0441 0.03737,0.0428 1.571891,2.09698 6.981852,-6.35366 6.705789,-3.67889 -0.0018,0.0726 0.0046,0.14457 0.01258,0.21669 0.01331,0.0893 0.05182,0.17154 0.0655,0.26039 0.0032,0.0209 0.01527,0.0526 -0.0029,0.0634 -6.584799,3.95265 -4.57248,5.45386 -6.663612,3.86758 -0.159771,-0.15527 -0.01989,-0.0117 -0.23016,-0.27144 -0.01006,-0.0124 0.008,0.0311 0.01455,0.0457 0.01356,0.0301 0.05493,0.0578 0.04362,0.0888 -0.0087,0.0238 -0.03866,-0.033 -0.05798,-0.0494 -0.08275,-0.0745 -0.153671,-0.15766 -0.223927,-0.2438 -0.08243,-0.0884 -0.124687,-0.20833 -0.19424,-0.30645 0.04049,-0.0245 0.07122,0.0928 0.04222,0.0125 -0.08195,-0.14937 -0.122681,-0.20727 -0.01436,-0.0341 1.143164,2.49868 4.377121,-2.22179 6.733834,-3.57429 0.01361,-0.008 -0.02602,-0.0185 -0.03528,-0.0311 -0.02507,-0.0343 -0.02818,-0.0909 -0.06681,-0.10856 -0.0306,-0.014 0.02392,0.063 0.03589,0.0944 -0.08611,-0.0628 -0.378951,-0.56032 -0.188895,-0.26009 0.02518,0.0472 0.05036,0.0943 0.07554,0.14148 -0.0169,-0.0131 -0.05717,-0.059 -0.05152,-0.0384 0.04562,0.16686 0.03776,0.0371 0.04254,0.13246 0.02781,0.10411 0.112862,0.18387 0.174712,0.2695 0.09367,0.12197 0.189592,0.26982 0.203792,0.42438 -2.16074,1.3815 -4.32148,2.763 -6.48222,4.1445 -0.604835,-0.84189 -0.112971,-0.31995 -0.28001,-0.36345 -0.0143,0.002 -0.02404,0.0229 -0.03811,0.0201 -0.08516,-0.0173 -0.152391,-0.1115 -0.246486,-0.10279 -0.03919,-0.0296 -0.113332,-0.11231 -0.164917,-0.12252 -0.0088,-0.002 -0.01838,0.006 -0.02681,0.003 -0.03388,-0.0125 -0.05372,-0.0518 -0.089,-0.0618 -0.02167,0.10919 -0.167759,-0.22412 -0.202098,-0.14071 -0.02252,-0.022 -0.04505,-0.044 -0.06758,-0.0661 -0.0066,-0.002 -0.01442,-6.6e-4 -0.01998,-0.005 -0.03859,-0.0278 -0.153536,-0.21145 -0.0388,-0.0232 -0.08301,-0.0919 -0.176879,-0.17593 -0.280907,-0.24314 -0.08839,-0.0674 -0.180096,-0.14016 -0.274223,-0.19926 -0.0783,-0.0492 -0.163885,-0.0778 -0.220948,-0.15791 -0.137597,-0.12189 -0.257601,-0.26295 -0.358323,-0.41681 -0.09583,-0.17652 -0.161687,-0.36128 -0.220431,-0.55373 -0.21106,-0.45925 -0.498801,-0.8745 -0.847715,-1.24087 -0.08476,-0.0877 -0.235904,-0.24786 -0.33087,-0.33331 -0.08151,-0.0734 -0.165996,-0.14364 -0.254375,-0.20853 -0.02698,-0.0198 -0.05973,-0.0314 -0.08533,-0.053 -0.03638,-0.0306 -0.06617,-0.0684 -0.09926,-0.10253 2.209326,-1.32109 4.399353,-2.67499 6.627977,-3.96326 0.01418,-0.008 0.05865,0.20442 0.0595,0.20989 0.02324,0.14911 0.02166,0.30242 0.0556,0.45022 0.08241,0.44613 0.168709,0.91092 0.486868,1.2572 0,0 -6.677531,3.70989 -6.677531,3.70989 z" />
    <path
       style="fill:#ffffff;fill-opacity:1;fill-rule:evenodd;stroke:none"
       id="path3849"
       d="m 88.474006,139.96485 c -0.03414,-0.0538 -0.0747,-0.16334 -0.143885,-0.18609 -0.0094,-0.003 -0.02246,0.0313 -0.01389,0.0263 6.663734,-3.88403 5.626061,-6.23114 6.671817,-3.7429 0.02635,0.0436 0.05094,0.0883 0.07906,0.13079 0.140088,0.21167 0.293156,0.41151 0.423291,0.63028 0.03039,0.0511 0.341075,0.60577 0.362398,0.64378 0.363747,0.64169 0.718493,1.29143 1.181295,1.86821 0.04566,0.0514 0.09035,0.10355 0.136981,0.154 0.0341,0.0369 0.06702,0.0753 0.105159,0.10795 0.233848,0.20046 -0.0066,-0.47533 -0.138889,-0.40132 -2.223446,1.24425 -4.286208,2.75606 -6.429312,4.13408 0.01245,-0.0138 0.03596,-0.0228 0.03735,-0.0413 0.01914,-0.2545 -0.277187,-0.7426 -0.406183,-0.95589 -0.09126,-0.15172 -0.198289,-0.29283 -0.298191,-0.43856 -0.02351,-0.0343 -0.08359,-0.17827 -0.148535,-0.16616 2.219348,-1.27632 4.420073,-2.58559 6.658044,-3.82896 0.03356,-0.0186 0.02218,0.0738 0.03817,0.10866 0.0227,0.0495 0.04961,0.0972 0.07754,0.14398 0.124582,0.20876 0.270278,0.40602 0.409243,0.60518 0.275559,0.40434 0.523171,0.82244 0.859959,1.18004 0.05734,0.0533 0.09165,0.12766 0.147471,0.18242 0.01024,0.0101 0.03466,0.035 0.03758,0.021 0.0063,-0.0303 0.0038,-0.10488 -0.02322,-0.0899 -6.693033,3.71285 -6.470183,6.34202 -6.661978,3.68447 -0.131676,-0.57439 -0.40327,-1.10133 -0.651489,-1.63157 -0.268036,-0.5899 -0.619309,-1.14071 -1.056905,-1.61872 -0.08081,-0.0531 -0.197763,-0.22444 -0.293485,-0.26148 -0.01066,-0.004 -0.03145,0.004 -0.03062,0.0154 0.003,0.0428 0.0033,0.14353 0.0405,0.12214 2.22611,-1.28062 4.409714,-2.63376 6.614572,-3.95063 -0.0069,0.0112 -0.02154,0.0205 -0.02073,0.0336 0.0049,0.0786 0.07166,0.29855 0.09156,0.35926 0.08409,0.25664 0.194965,0.50069 0.306784,0.74604 0.264063,0.5908 0.456848,1.21016 0.6826,1.81599 0.148208,0.30126 0.278779,0.75016 0.581518,0.93549 0.05394,0.0124 0.08022,0.0309 0.01911,-0.0841 -1.383294,-2.60193 -3.254024,1.45419 -6.733588,3.62775 -0.02619,0.0163 0.03622,0.0518 0.06198,0.0689 0.0086,0.006 0.01987,-0.006 0.02981,-0.008 0.118352,-0.2876 0.08135,-0.60791 0.06518,-0.91018 -0.06314,-0.43136 -0.1225,-0.86762 -0.237425,-1.28892 -0.07177,-0.20564 -0.135169,-0.41487 -0.230499,-0.6112 0.03303,0.0612 0.03669,0.13853 0.074,0.1975 1.577634,2.49344 1.320779,-0.33436 6.727622,-3.66284 -0.086,-0.0684 -0.04053,-0.0311 -0.129446,-0.18802 -0.01515,-0.0267 -0.01494,0.002 -0.02927,-0.042 0.09016,0.0152 0.193414,0.1671 0.240822,0.23305 0.01122,0.016 0.02728,0.0665 0.03367,0.048 0.0075,-0.0217 -0.04982,-0.0537 -0.02866,-0.0625 0.03605,-0.015 0.05265,0.13411 0.06539,0.0972 0.0084,-0.0242 -0.02298,-0.0483 -0.02108,-0.0739 0.02026,0.0292 0.04051,0.0584 0.06077,0.0876 -0.01427,-0.0254 0.03254,-0.013 0.03506,-0.01 0.01529,0.0188 0.09013,0.13707 0.112204,0.17169 -0.001,0.0337 0.04877,0.051 0.05157,0.0836 0.001,0.0121 -0.01469,-0.0193 -0.02154,-0.0292 -0.0066,-0.01 0.01753,0.0158 0.027,0.0227 0.06572,0.074 0.115962,0.2041 0.142635,0.30377 0.09764,0.14083 0.09891,0.20884 -0.23419,-0.40118 -0.0421,-0.0771 0.09591,0.14755 0.150651,0.21627 0.02331,0.0431 0.04732,0.0858 0.06994,0.12931 0.0104,0.02 0.04237,0.0792 0.02908,0.061 -0.01262,-0.0173 -0.05034,-0.0844 -0.05986,-0.11942 -0.0016,-0.006 -0.0049,-0.0233 -0.0013,-0.0183 0.0247,0.0347 0.04407,0.073 0.0661,0.10947 -0.07458,-0.20589 0.189875,0.29469 0.0718,0.0622 -0.02922,-0.15407 0.170824,0.26528 0.177208,0.27999 -0.03755,-0.10494 0.102569,0.24609 0.04607,0.15401 -0.06514,-0.10617 -0.114944,-0.22106 -0.175107,-0.33013 -1.25783,-2.3734 1.927677,-1.2092 -6.753699,3.55224 -0.01,0.006 0.0038,-0.0346 0.01448,-0.0309 0.03374,0.0115 0.05025,0.0527 0.0823,0.0683 0.0527,-0.007 0.0605,0.056 0.10361,0.0627 0.02279,-0.0229 0.01226,-0.0559 0.01578,-0.0855 0.01101,-0.1062 -0.05329,-0.21214 0.07716,0.0326 -0.03576,-0.0674 -0.0733,-0.13524 -0.103756,-0.20717 -0.01703,-0.0425 -0.03463,-0.0847 -0.05486,-0.12567 2.291608,-1.16698 4.583215,-2.33396 6.874822,-3.50093 0.0036,0.0338 0.0049,0.0703 8.8e-4,0.10446 -0.005,0.0765 -0.0074,0.15251 -0.01446,0.22933 -0.0082,-0.006 -0.01529,-0.0241 -0.02469,-0.0194 -0.0151,0.007 0.01169,0.0567 0.03808,0.13188 0.04819,0.13727 0.08868,0.2501 0.147121,0.39309 4.030517,4.80328 -5.953697,5.67988 -7.028237,3.26369 -0.0078,-0.0174 -0.09916,-0.27656 -0.105486,-0.2944 -0.224968,-0.56132 -0.620236,-1.03077 -1.01814,-1.4778 -0.412464,-0.4462 -0.806956,-0.90964 -1.25009,-1.32605 -0.05966,-0.0489 -0.117462,-0.10013 -0.178964,-0.14668 -0.02175,-0.0165 -0.195923,-0.15017 -0.257618,-0.13842 -0.01443,0.002 -0.399395,0.62026 0.0739,0.36053 2.196131,-1.20517 4.28804,-2.59121 6.43206,-3.88682 -0.0335,0.0288 -0.07877,0.0479 -0.100517,0.0864 -0.05578,0.0987 -0.09471,0.36481 -0.104371,0.46298 -0.03251,0.33064 -0.0037,0.65926 0.023,0.98886 0.02741,0.83115 0.139976,1.65516 0.376275,2.4527 1.030649,2.85816 3.136157,-0.60737 -6.459677,4.27415 -0.0187,0.01 -0.236099,-0.49788 -0.252402,-0.53512 -0.36876,-0.7778 -0.825663,-1.5077 -1.307839,-2.21905 -0.31564,-0.42323 -0.602806,-0.86877 -0.936357,-1.27863 -0.09634,-0.11837 -0.198802,-0.23167 -0.296049,-0.34931 -0.03222,-0.0334 -0.06331,-0.0678 -0.09668,-0.10003 -0.0695,-0.0671 -0.127391,-0.11129 -0.120223,-0.069 0.01224,0.0722 0.01405,0.23979 0.07868,0.20527 6.893906,-3.68135 8.833754,-2.49327 6.557106,-3.84737 -0.0088,0.0174 -0.02699,0.0327 -0.02637,0.0522 0.0056,0.1758 0.155232,0.44817 0.228942,0.59879 0.08028,0.16404 0.246342,0.47022 0.329174,0.62488 0.259032,0.50318 0.483011,1.02364 0.746571,1.52454 0.01033,0.0196 0.364997,0.66402 0.380003,0.69129 0.22409,0.37426 0.45142,0.74699 0.745617,1.07086 0.04532,0.0102 0.02309,0.006 0.06665,0.0118 -2.229165,1.26965 -4.439368,2.5732 -6.687497,3.80896 -0.03438,0.0189 -0.02807,-0.0733 -0.04131,-0.11023 -0.02003,-0.0559 -0.03899,-0.11216 -0.05848,-0.16824 -0.02875,-0.0802 -0.0575,-0.16033 -0.08624,-0.24049 -0.312412,-0.73256 -0.691802,-1.43523 -1.046812,-2.14824 -0.436491,-0.8744 -0.849144,-1.76027 -1.282292,-2.63632 -0.249581,-0.46125 -0.493151,-0.92381 -0.712632,-1.40016 -0.0197,-0.029 -0.03834,-0.0589 -0.0591,-0.0872 -0.01924,-0.0262 -0.04961,-0.0632 -0.07677,-0.0852 -0.0057,-0.005 -0.02216,-0.0177 -0.01918,-0.011 0.07644,0.17284 0.138196,0.26624 0.233425,0.42631 2.204367,-1.26998 4.430891,-2.50224 6.613099,-3.80993 0.03831,-0.023 -0.05154,-0.0771 -0.09073,-0.0986 -0.01195,-0.006 -0.102946,0.0502 -0.111093,0.0731 -0.02971,0.0834 -0.01578,0.36724 -0.01502,0.42459 0.0655,0.75373 0.348759,1.46609 0.627482,2.16234 0.307078,0.73406 0.609313,1.47349 0.835274,2.23715 0.100881,0.41044 0.13799,0.83237 0.186151,1.25128 0.0062,0.0409 0.01025,0.0821 0.01861,0.12254 0.01894,0.0917 0.07281,0.24553 0.0673,0.24862 -2.432486,1.36738 -5.61916,5.90717 -6.95638,3.32679 -0.239305,-0.4524 -0.582171,-0.83451 -0.914452,-1.21912 -0.486436,-0.49374 -0.929395,-1.02525 -1.357083,-1.56971 -0.318272,-0.388 -0.633507,-0.7777 -0.963614,-1.15582 -0.14783,-0.20216 -0.335454,-0.35898 -0.530616,-0.51147 -0.04531,0.059 -0.10405,-0.0862 -0.130573,-0.0751 -0.02574,0.0108 0.07487,0.16045 -0.07243,-0.0713 -0.126809,-0.23867 -0.322861,-0.42782 -0.495045,-0.63275 -0.08451,-0.10036 -0.171624,-0.19888 -0.282168,-0.27116 -0.02245,-0.0146 -0.04834,-0.024 -0.06959,-0.0404 -0.04619,-0.0355 -0.08431,-0.0805 -0.126496,-0.12076 -0.01418,-0.0138 -0.02509,-0.0506 -0.04254,-0.0413 -0.01733,0.009 0.0042,0.0395 0.01162,0.0577 0.01681,0.0414 0.02108,0.14122 0.06037,0.11984 2.248105,-1.22368 4.443369,-2.54224 6.679166,-3.78825 0.01969,-0.011 0.0042,0.0462 -0.0029,0.0675 -0.004,0.012 -0.01886,0.0168 -0.0283,0.0252 -0.05541,0.0679 -0.07719,0.10757 -0.100437,0.19489 -0.01035,0.0846 -0.0046,0.1695 -0.0076,0.25433 7.95e-4,0.0124 0.01465,0.0352 0.0024,0.0372 -0.01499,0.002 -0.01681,-0.033 -0.03198,-0.0324 -0.0198,7.5e-4 0.03811,0.17034 0.04689,0.19438 0.04194,0.0916 0.04739,0.19349 0.05945,0.29195 0.0019,0.0112 0.01246,0.0426 0.0057,0.0335 -0.02434,-0.0328 -0.08946,-0.14167 -0.09852,-0.18918 -0.0016,-0.008 0.0081,0.0169 0.01602,0.0205 0.0046,0.002 0.0087,-0.005 0.01303,-0.007 0.107239,0.13346 0.231354,0.24339 0.3492,0.36656 0.312022,0.30409 0.662966,0.56053 1.017223,0.8122 0.210488,0.13915 0.402064,0.30394 0.603887,0.45464 0.132201,0.0987 0.271117,0.17977 0.398526,0.28461 0.230035,0.20155 0.334884,0.49663 0.487645,0.75447 0.243053,0.36152 0.565231,0.65636 0.887163,0.9456 0.13687,0.11933 0.282535,0.21056 0.462425,0.2442 0.04058,0.007 0.08387,0.0246 0.123269,0.0122 0.08873,-0.0278 0.08037,-0.13358 0.0904,-0.19841 -2.186324,1.21541 -4.39073,2.39884 -6.558974,3.64621 -0.03401,0.0196 0.05726,0.0546 0.0908,0.0749 0.02444,0.0148 0.05216,0.0312 0.08066,0.029 0.104451,-0.008 0.131904,-0.27367 0.14311,-0.32159 0.113849,-0.59775 0.06714,-1.2046 -0.02043,-1.80187 -0.06162,-0.3442 -0.185617,-0.67031 -0.322136,-0.99023 -0.988176,-2.58942 -4.663474,1.89895 6.711414,-3.79723 0.05134,-0.0257 0.05464,0.10103 0.08325,0.15081 0.138046,0.24015 0.101928,0.17566 0.27984,0.42367 0.295587,0.36424 0.630061,0.69433 0.929738,1.05519 0.114902,0.13836 0.382089,0.48531 0.491818,0.62678 0.438583,0.57028 0.878984,1.13883 1.36094,1.67339 0.189929,0.20062 0.365434,0.41877 0.580921,0.59337 0.01031,0.007 0.03292,0.0351 0.03092,0.0226 -0.01714,-0.10828 -0.235264,-0.41039 -0.238159,-0.40877 -2.173141,1.34568 -4.346284,2.69136 -6.519425,4.03705 0.04174,0.005 0.0188,4.2e-4 0.06827,0.0155 0.0047,-0.0141 0.0137,-0.0274 0.01415,-0.0422 0.0065,-0.21509 -0.129428,-0.62615 -0.19365,-0.83181 -0.168633,-0.53908 -0.336475,-1.07828 -0.492439,-1.62118 -0.04632,-0.22045 -0.10311,-0.43811 -0.160913,-0.65567 -0.02414,-0.0909 -0.03473,-0.19191 -0.09069,-0.26971 -0.0071,-0.003 -0.03304,-0.0202 -0.01661,0.0139 1.230254,2.55424 2.522149,-1.0817 6.790975,-3.5334 0.01543,-0.009 -0.0336,-0.023 -0.05049,-0.0174 -0.01805,0.006 -0.02286,0.0304 -0.03429,0.0456 0.05795,0.53079 0.217895,1.05016 0.375105,1.55932 0.17799,0.54805 0.379566,1.08804 0.56741,1.63271 0.196611,0.55533 0.402487,1.10728 0.615083,1.65667 0.102029,0.1733 0.125977,0.3912 0.240723,0.55707 0.02584,0.0611 0.05557,0.12051 0.08899,0.17783 -2.282555,1.17669 -4.565111,2.35339 -6.847666,3.53008 0.02482,-0.0394 0.0069,-0.0935 0.02274,-0.13403 0.003,-0.008 0.01435,-0.009 0.02153,-0.013 -3.68e-4,-0.025 -7.36e-4,-0.0502 -0.0011,-0.0752 0.03018,-0.42238 -0.172134,-0.88639 -0.30773,-1.28089 -0.03187,-0.0912 -0.06547,-0.18191 -0.09561,-0.27374 -0.07617,-0.23205 -0.103168,-0.35428 -0.184425,-0.58654 -0.111308,-0.31816 -0.249244,-0.62386 -0.390976,-0.92922 -0.157131,-0.3993 -0.446345,-0.72063 -0.654474,-1.08932 -0.11152,-0.18286 -0.148002,-0.40454 -0.257388,-0.58688 -0.05352,-0.0947 -0.118619,-0.20219 -0.176625,-0.31266 -0.0474,-0.121 -0.139917,-0.21373 -0.20522,-0.32336 -0.06452,-0.0662 -0.06441,-0.16996 -0.110217,-0.23154 1.2566,2.59589 -0.588298,0.82375 6.807067,-3.38465 0.01236,-0.007 -0.02214,-0.0181 -0.0315,-0.0288 -0.01932,-0.0222 -0.03619,-0.0462 -0.05428,-0.0694 -0.007,-0.0293 -0.03806,-0.0166 -0.05364,-0.0299 -0.01864,-0.0159 -0.02773,-0.042 -0.04818,-0.0555 -0.0139,-0.009 -0.01997,0.0317 -0.01514,0.0476 0.0111,0.0366 0.02594,0.0719 0.0389,0.10792 0.129404,0.34661 0.154302,0.71591 0.186605,1.08079 0.02252,0.41096 0.04113,0.82406 0.121881,1.22832 0.06582,0.30608 0.203235,0.58545 0.331601,0.86776 0.04026,0.16673 0.154678,0.28309 0.29664,0.3699 0,0 -6.477221,3.99744 -6.477221,3.99744 l 0,0 c -0.182074,-0.22807 -0.38165,-0.45188 -0.499505,-0.72149 -0.04096,-0.33196 -0.129222,-0.65597 -0.19959,-0.98236 -0.114499,-0.42789 -0.198884,-0.86741 -0.214258,-1.31106 -0.01765,-0.27084 -0.03698,-0.55311 -0.184899,-0.78895 -0.104036,-0.17639 -0.23823,-0.34322 -0.267407,-0.55226 -0.763894,-2.68715 5.54913,-6.13974 6.949778,-3.59099 0.02506,0.0594 0.06238,0.1174 0.08466,0.17709 0.0076,0.0204 -0.04678,0.0154 -0.0081,0.0414 0.02326,0.0543 0.05855,0.10101 0.08429,0.15389 0.03317,0.0682 0.04728,0.14646 0.09642,0.20723 0.0691,0.13266 0.217965,0.22117 0.233371,0.38381 0.01771,0.0655 0.04037,0.12983 0.05434,0.19626 0.02774,0.13195 0.03496,0.26837 0.105249,0.38917 0.137952,0.41109 0.256065,0.82933 0.418694,1.23172 0.256275,0.60164 0.56704,1.18231 0.757958,1.80976 0.05646,0.15842 0.12563,0.36624 0.198974,0.51884 0.122529,0.25495 0.289164,0.48646 0.418957,0.73737 0.02027,0.0631 0.04736,0.12411 0.06522,0.18798 0.698548,2.49765 -18.607257,11.11296 -6.828333,3.7346 0.02134,-0.0334 0.01259,-0.0786 0.0098,-0.11693 -0.01758,-0.0895 -0.04515,-0.18584 -0.05127,-0.27641 -0.0098,-0.14573 0.0221,-0.29684 -0.0098,-0.44233 -0.07918,-0.56695 -0.245758,-1.1152 -0.488508,-1.63416 -0.114954,-0.27169 -0.241143,-0.54092 -0.332024,-0.82206 -0.109692,-0.33932 -0.05306,-0.21611 -0.141484,-0.5616 -0.02634,-0.10288 -0.05872,-0.20412 -0.08808,-0.30618 -0.157729,-0.50499 -0.342898,-1.00144 -0.6462,-1.43984 -0.03021,-0.0533 -0.06382,-0.10484 -0.09063,-0.15994 -0.02284,-0.047 -0.102614,-0.11839 -0.05798,-0.14546 3.757553,-2.27877 5.494383,-6.15344 6.82765,-3.61624 0.02188,0.0416 0.03078,0.1154 0.03846,0.15929 0.0027,0.0398 0.01629,0.23208 0.01614,0.25879 -0.0014,0.26263 -0.04136,0.5264 0.01922,0.78738 0.08352,0.52534 0.246927,1.02581 0.480209,1.50446 0.140365,0.30453 0.29097,0.60432 0.456494,0.896 1.259003,2.57476 -5.598582,6.60502 -6.73237,3.81575 -0.07946,-0.25067 -0.200907,-0.48701 -0.314358,-0.72322 -0.353266,-0.60849 -0.747398,-1.194 -1.210886,-1.72493 -0.458885,-0.5544 -0.950628,-1.08232 -1.501296,-1.54751 -0.159729,-0.12113 -0.264932,-0.2127 -0.438503,-0.30499 -0.03788,-0.0202 -0.157355,-0.025 -0.120086,-0.0463 2.210357,-1.26045 4.469089,-2.43474 6.679902,-3.69439 0.02913,-0.0166 -0.04194,-0.0547 -0.07124,-0.071 -0.01305,-0.007 -0.02954,0.005 -0.0443,0.006 -0.01337,0.0134 -0.03468,0.0219 -0.0401,0.04 -0.0066,0.0222 -0.01102,0.27225 -0.01102,0.27658 -1.96e-4,0.25393 0.01072,0.50833 0.03711,0.7609 0.07744,0.60707 0.145459,1.21517 0.250846,1.81825 0.571249,3.18882 -0.342827,1.1422 -6.553247,4.55527 -0.319691,-0.22252 -0.622893,-0.46704 -0.91116,-0.72915 -0.351538,-0.32466 -0.64434,-0.69824 -0.951064,-1.06409 -0.186687,-0.19843 -0.391923,-0.38043 -0.561964,-0.59276 -0.210605,-0.29339 -0.470915,-0.53909 -0.778692,-0.73016 -0.380582,-0.27134 -0.766032,-0.53062 -1.178309,-0.75211 -0.01626,-0.0102 -0.178682,-0.10984 -0.208371,-0.1338 -0.06518,-0.0526 -0.117482,-0.12745 -0.203036,-0.14989 -0.100808,-0.0938 -0.182035,-0.16637 -0.246224,-0.29215 -0.074,-0.14502 -0.07604,-0.0925 -0.0635,-0.17453 0.0053,-0.0542 0.01261,-0.10787 0.0169,-0.16115 -0.0095,-0.1178 -0.06336,-0.19542 -0.09813,-0.30736 -0.004,-0.013 0.0014,-0.0272 0.0022,-0.0408 -0.0036,-0.10006 0.0025,-0.20032 6.76e-4,-0.30045 -0.01047,-0.12591 -0.02039,-0.2569 -0.006,-0.38142 8.8e-4,-0.1389 -0.01857,-0.0292 0.02362,-0.0533 2.031988,-1.15975 5.600927,-6.14561 6.832413,-3.59701 0.0937,0.1749 0.236395,0.32576 0.354514,0.48345 0.178647,0.18649 0.359152,0.38382 0.582085,0.51716 0.0049,-0.008 0.005,-0.025 0.0147,-0.0249 0.06998,0.002 0.129439,0.17095 0.168814,0.2155 0.152365,0.22205 0.342397,0.42014 0.455178,0.66814 0.259231,0.41839 0.529653,0.83014 0.827251,1.22249 0.395572,0.53077 0.768116,1.08112 1.225885,1.56228 0.09062,0.0882 0.177778,0.18007 0.271863,0.26455 0.31929,0.28668 0.681604,0.51245 1.029859,0.75973 0.0095,-0.003 0.03199,-3.5e-4 0.02862,-0.01 -0.02073,-0.0584 -0.03478,-0.19105 -0.08987,-0.1627 -2.261231,1.16343 -4.484278,2.40066 -6.696681,3.65446 -0.03633,0.0206 0.05078,0.0675 0.08369,0.0932 0.02435,0.019 0.05369,0.0358 0.08449,0.0382 0.02498,0.002 0.04701,-0.0174 0.0705,-0.026 0.06427,-0.1288 0.125259,-0.26474 0.14914,-0.40814 0.03919,-0.23536 0.02398,-0.48044 0.02757,-0.71743 -0.02469,-0.23224 -0.03758,-0.39598 -0.08214,-0.62857 -0.104144,-0.54362 -0.294498,-1.068 -0.521568,-1.5713 -0.31839,-0.72084 -0.653187,-1.43478 -0.938092,-2.16991 -0.07658,-0.19982 -0.171878,-0.39315 -0.247225,-0.59287 -0.01391,-0.0369 -0.01823,-0.0768 -0.03012,-0.11437 -0.835564,-2.64227 -2.975977,1.50202 6.581866,-4.03113 0.155134,0.19066 0.184443,0.21055 0.309155,0.43598 0.04591,0.083 0.01942,0.27329 0.0575,0.35864 0.04502,0.22868 0.02478,0.11142 0.06001,0.35189 0.07235,0.39492 0.188668,0.7831 0.304208,1.16672 0.124183,0.35959 0.160161,0.4834 0.312234,0.84016 0.257807,0.6048 0.566904,1.18829 0.887542,1.76151 0.397648,0.67868 0.814682,1.34972 1.30351,1.96728 0.16097,0.17502 0.126697,0.1457 0.279524,0.28692 0.02517,0.0233 0.106128,0.0504 0.07688,0.0682 -2.186244,1.33506 -4.406292,2.61396 -6.609439,3.92094 0.03883,-0.039 0.02085,-0.0103 0.0031,-0.10147 -0.06602,-0.43345 -0.220627,-0.8431 -0.38806,-1.24663 -0.349257,-0.73036 -0.681097,-1.47356 -1.123791,-2.15382 -0.326381,-0.46513 -0.70445,-0.89044 -1.021116,-1.36188 -0.03597,-0.0692 -0.174193,-0.16653 -0.107914,-0.20767 2.910364,-1.80667 5.442968,-6.1167 6.800855,-3.64092 0.06242,0.11381 0.07763,0.25112 0.136763,0.36629 0.205831,0.62895 0.512567,1.2192 0.863936,1.77883 0.465423,0.71251 0.971348,1.40381 1.57641,2.00548 0.05966,0.044 0.106889,0.11475 0.178989,0.13197 0.0293,0.007 0.0708,-0.0935 0.04465,-0.0786 -2.199288,1.25791 -4.395236,2.52198 -6.574884,3.81363 -0.03422,0.0203 0.08975,0.0395 0.118707,0.0122 0.101449,-0.0955 -0.01666,-0.32539 0.07936,-0.41044 0.0027,-0.31414 0.01011,-0.41247 -0.01691,-0.73951 -0.04866,-0.5888 -0.176791,-1.16655 -0.309082,-1.74108 -0.06105,-0.33679 -0.121015,-0.67364 -0.176433,-1.01141 -0.0273,-0.16643 -0.04688,-0.33426 -0.08089,-0.49944 -0.01524,-0.074 -0.03662,-0.14659 -0.05492,-0.21988 4.536577,-2.83081 4.856434,-5.98841 6.730458,-3.81324 0.160922,0.18678 0.277287,0.41069 0.430598,0.60325 0.384262,0.47957 0.810881,0.92245 1.205398,1.39343 0.395318,0.49661 0.793055,0.99297 1.235481,1.44899 0.01219,0.0126 0.151914,0.16531 0.205153,0.20011 0.03484,0.0228 0.02802,-0.10662 0.01258,-0.0984 -2.247493,1.19558 -4.476106,2.42632 -6.714158,3.63948 0.04463,0.079 0.08352,0.16147 0.133893,0.2369 0.0092,0.0138 0.03348,-0.004 0.04986,-0.002 0.01046,0.002 0.02929,0.0208 0.0302,0.0102 0.0056,-0.0644 -0.09174,-0.11499 -0.06842,-0.18154 -0.0072,-0.0714 -0.0093,-0.14206 -0.0146,-0.21304 -0.0049,-0.0338 -0.0023,-0.0696 1.35e-4,-0.1033 2.291548,-1.1832 4.583096,-2.3664 6.874644,-3.54959 -0.01413,-0.0118 -0.02263,-0.002 -0.03642,0.006 -0.02938,-0.0198 0.0034,0.005 -0.04038,-0.0566 -0.0018,-0.002 0.05922,0.10795 0.05563,0.0982 0.07451,0.14018 0.103094,0.16464 0.09662,0.29181 0.0076,0.0447 -6.86e-4,0.0919 0.01503,0.13574 0.01357,0.0958 0.06799,0.17836 0.04114,0.27773 6.7e-4,0.0549 0.02282,0.10937 0.01637,0.16389 -0.0011,0.009 -0.01984,1.2e-4 -0.02817,0.005 -4.66272,2.57658 -5.168187,5.73485 -6.846983,3.58495 -0.01978,-0.0296 -0.308288,-0.40195 -0.190591,-0.38549 0.04486,0.0721 0.184125,0.28004 0.0274,0.071 -0.157803,-0.23355 -0.0284,-0.0487 -0.01709,-0.0116 0.0038,0.0126 -0.0171,-0.02 -0.02558,-0.03 -0.05246,-0.0622 -0.03039,-0.0357 -0.09323,-0.11896 0.14588,0.2639 -0.173271,-0.26526 -0.09929,-0.14279 0.01788,0.0296 0.03414,0.0602 0.0512,0.0902 0.01443,0.0541 0.106835,0.19659 0.0763,0.14965 -0.448846,-0.68988 -0.32031,-0.2605 -0.255159,-0.44065 0.01504,0.017 0.01611,0.006 0.02895,0.0177 0.02246,0.0214 0.06322,0.10136 0.06472,0.10391 0.0035,0.006 -0.0066,-0.0121 -0.01,-0.0181 -0.0092,-0.0155 -0.146442,-0.21221 -0.08943,-0.14673 0.0048,0.008 0.01002,0.0151 0.01444,0.0231 0.117731,0.21094 -0.141521,-0.17911 -0.06036,-0.0141 -0.07587,-0.0897 -0.136099,-0.16491 -0.182574,-0.24293 0.0022,0.005 0.03654,0.0368 0.01494,0.0327 -0.01326,-0.002 -0.159332,-0.14681 -0.171612,-0.16039 -0.135494,-0.16798 -0.267235,-0.34361 -0.29268,-0.56539 6.189657,-3.85059 5.011667,-6.12291 6.771293,-3.73025 0.08166,0.11104 0.145339,0.2354 0.194715,0.36369 -0.01708,0.22715 0.01893,0.45228 0.05924,0.67543 0.08284,0.45564 0.115779,0.9183 0.198772,1.37424 0.07348,0.31451 0.161891,0.62278 0.24751,0.93367 0.0077,0.0272 0.01409,0.0547 0.023,0.0815 0.01514,0.0455 0.08955,0.10949 0.0491,0.13529 -0.806258,0.51427 -5.663118,6.39487 -6.897954,3.47389 -0.149385,-0.41153 -0.252443,-0.83826 -0.402869,-1.24961 -0.204737,-0.58285 -0.403503,-1.1696 -0.691122,-1.71853 -0.199859,-0.37824 -0.397303,-0.7583 -0.715028,-1.05304 7.235468,-4.39741 5.678255,-6.29701 6.832875,-3.40671 0.271642,0.61089 0.604747,1.19311 0.938973,1.77136 0.293721,0.51551 0.560325,1.04998 0.936827,1.51252 0.03423,0.0443 0.15015,0.10329 0.102693,0.13308 -2.167304,1.36017 -5.783654,6.22969 -6.655905,3.82419 -0.02821,-0.0778 -0.01703,-0.16927 -0.05874,-0.24365 -0.158332,-0.43746 -0.377919,-0.84106 -0.691877,-1.18835 -0.132537,-0.15529 -0.187093,-0.22549 -0.329581,-0.36854 -2.095438,-2.10361 -4.029232,1.54268 6.15732,-4.28635 0.0619,0.25626 0.110068,0.51489 0.246679,0.74704 0.188823,0.40139 0.440357,0.76476 0.707378,1.11796 -4.552102,3.00196 -5.055995,6.40115 -6.691117,3.8436 -0.105845,-0.16556 -0.0771,-0.39865 -0.177762,-0.56718 -0.256808,-0.67847 -0.603442,-1.31878 -1.033894,-1.90365 -0.334249,-0.44183 -0.704075,-0.84702 -1.117396,-1.21664 -2.018465,-1.78367 -0.21652,-0.12965 6.399062,-4.12016 0.02428,-0.0146 0.02477,0.051 0.03632,0.077 0.03105,0.0696 0.07246,0.12457 0.136688,0.16926 0,0 -6.57979,3.93262 -6.57979,3.93262 z" />
  </g>
</svg>
